<?xml version="1.0" standalone="no"?>
<!DOCTYPE svg PUBLIC "-//W3C//DTD SVG 1.1//EN" "http://www.w3.org/Graphics/SVG/1.1/DTD/svg11.dtd" >
<svg xmlns="http://www.w3.org/2000/svg">
<metadata></metadata>
<defs>
<font id="senticosansdtlight_italic" horiz-adv-x="438" >
<font-face units-per-em="2048" ascent="1638" descent="-410" />
<missing-glyph horiz-adv-x="491" />
<glyph unicode="&#xfb03;" horiz-adv-x="1785" d="M160 -418l227 1297h-164l17 90h163l41 231q24 131 102.5 193.5t227.5 62.5q83 0 160 -18l-19 -88q-102 18 -153 18q-99 0 -149.5 -41.5t-65.5 -134.5l-41 -223h538l41 231q24 131 102.5 193.5t227.5 62.5q83 0 160 -18l-19 -88q-102 18 -153 18q-99 0 -149.5 -41.5 t-65.5 -134.5l-41 -223h289l-39 -90h-267l-221 -1270l-108 -27l227 1297h-539l-221 -1270zM1516 0l172 989h102l-172 -989h-102zM1726 1227q0 26 17 92q6 25 18.5 34t44.5 9q29 0 40.5 -7t11.5 -26q0 -52 -19 -98q-6 -22 -19 -29.5t-42 -7.5t-40.5 7t-11.5 26z" />
<glyph unicode="&#xfb04;" horiz-adv-x="1873" d="M160 -418l227 1297h-164l17 90h163l41 231q24 131 102.5 193.5t227.5 62.5q83 0 160 -18l-19 -88q-102 18 -153 18q-99 0 -149.5 -41.5t-65.5 -134.5l-41 -223h538l41 231q24 131 102.5 193.5t227.5 62.5q83 0 160 -18l-19 -88q-102 18 -153 18q-99 0 -149.5 -41.5 t-65.5 -134.5l-41 -223h289l-39 -90h-267l-221 -1270l-108 -27l227 1297h-539l-221 -1270zM1524 90q0 47 16 119l215 1218l109 25l-226 -1262q-10 -45 -10 -79q0 -45 64 -45q48 0 118 16l11 -84q-78 -21 -158 -21q-76 0 -107.5 28t-31.5 85z" />
<glyph horiz-adv-x="0" />
<glyph horiz-adv-x="682" />
<glyph unicode=" "  horiz-adv-x="491" />
<glyph unicode="&#x09;" horiz-adv-x="491" />
<glyph unicode="&#xa0;" horiz-adv-x="491" />
<glyph unicode="!" horiz-adv-x="452" d="M172 20q0 39 14 93q6 25 19.5 34t44.5 9q29 0 40 -7t11 -26q0 -52 -16 -98q-7 -22 -21 -29.5t-43 -7.5q-28 0 -38.5 6.5t-10.5 25.5zM242 301l55 363l129 766h102l-143 -766l-74 -363h-69z" />
<glyph unicode="&#x22;" horiz-adv-x="698" d="M354 979q0 17 4 37l45 338q6 41 13.5 54t27.5 13h41q27 0 27 -20q0 -21 -4 -37l-84 -373q-3 -17 -6.5 -20.5t-14.5 -3.5h-34q-9 0 -12 2.5t-3 9.5zM616 979q0 12 5 37l45 338q6 41 13.5 54t27.5 13h41q26 0 26 -20q0 -21 -4 -37l-84 -373q-3 -17 -6 -20.5t-14 -3.5h-35 q-9 0 -12 2.5t-3 9.5z" />
<glyph unicode="#" horiz-adv-x="1290" d="M190 475l29 82h205l129 412h-213l29 82h209l110 350h86l-110 -350h409l111 350h86l-111 -350h209l-29 -82h-204l-129 -412h213l-29 -82h-209l-117 -373h-86l117 373h-410l-116 -373h-86l116 373h-209zM510 557h410l129 412h-410z" />
<glyph unicode="$" horiz-adv-x="1142" d="M180 53l25 94q139 -61 334 -69l104 586q-92 31 -143 53.5t-91.5 53t-55.5 68t-15 91.5q0 169 74 297q91 155 360 168l35 190h90l-35 -190q174 -11 299 -52l-24 -96q-153 49 -289 56l-103 -572q170 -60 234.5 -115t64.5 -157q0 -173 -75 -303q-47 -81 -132 -123.5 t-223 -46.5l-34 -195h-91l33 195q-220 10 -342 67zM436 944q0 -64 46.5 -100t176.5 -82l97 538q-199 -9 -260 -118q-60 -102 -60 -238zM629 78q103 5 164.5 34t97.5 95q51 97 51 233q0 67 -45 108t-168 87z" />
<glyph unicode="%" horiz-adv-x="1718" d="M262 840q0 69 16.5 166t45.5 186q38 118 112 174.5t203 56.5q124 0 176.5 -57t52.5 -172q0 -74 -16 -173.5t-45 -180.5q-43 -119 -114 -173.5t-199 -54.5q-126 0 -179 56.5t-53 171.5zM352 842q0 -79 34 -114.5t116 -35.5q141 0 194 101q36 69 60 192.5t24 206.5 q0 79 -34 114t-115 35q-142 0 -195 -100q-36 -69 -60 -192t-24 -207zM518 10l860 1434l78 -31l-860 -1431zM1087 205q0 72 16.5 169.5t45.5 182.5q41 121 113 176t202 55q125 0 178.5 -57t53.5 -172q0 -69 -17.5 -169.5t-46.5 -184.5q-38 -116 -112 -172t-201 -56 q-126 0 -179 56.5t-53 171.5zM1178 207q0 -80 33.5 -115t115.5 -35q143 0 195 101q37 73 60.5 193.5t23.5 205.5q0 79 -34.5 114.5t-115.5 35.5q-142 0 -192 -101q-37 -72 -61.5 -193.5t-24.5 -205.5z" />
<glyph unicode="&#x26;" horiz-adv-x="1261" d="M150 254q0 76 22.5 144.5t57.5 119.5t88.5 99t104.5 81t116 68q-59 84 -92 158t-33 153q0 158 107 250t265 92q138 0 209.5 -57t71.5 -164q0 -65 -23 -123.5t-57.5 -102t-91 -87.5t-105 -73.5t-118.5 -66.5l323 -426q105 105 203 259l76 -39q-122 -185 -227 -285 l161 -211l-78 -57l-157 202q-122 -102 -240 -154t-250 -52q-160 0 -246.5 68.5t-86.5 203.5zM250 268q0 -96 65 -146t177 -50q224 0 432 182l-340 446q-58 -32 -101 -60t-89.5 -69t-76 -83t-48.5 -99t-19 -121zM508 1083q0 -117 117 -272q57 29 97 51.5t91 59.5t82.5 73 t53.5 86t22 105q0 69 -48.5 107t-144.5 38q-121 0 -195.5 -68t-74.5 -180z" />
<glyph unicode="'" horiz-adv-x="434" d="M354 979q0 17 4 37l45 338q6 41 13.5 54t27.5 13h41q27 0 27 -20q0 -21 -4 -37l-84 -373q-3 -17 -6.5 -20.5t-14.5 -3.5h-34q-9 0 -12 2.5t-3 9.5z" />
<glyph unicode="(" horiz-adv-x="579" d="M238 315q0 359 133 680t370 594l74 -51q-479 -559 -479 -1231q0 -313 147 -614l-86 -51q-159 323 -159 673z" />
<glyph unicode=")" horiz-adv-x="579" d="M-20 -303q477 559 477 1229q0 313 -148 616l86 47q158 -324 158 -674q0 -359 -133 -680t-371 -593z" />
<glyph unicode="*" horiz-adv-x="1050" d="M355 1140.5q-1 7.5 2 14.5t12 27q12 26 19 30t30 -4l37 -12l231 -94l35 260l6 45q3 24 10.5 28.5t38.5 4.5q30 0 36 -4.5t3 -24.5q-6 -37 -10 -53l-57 -256l256 90q42 15 57 18t21 -2.5t12 -31.5q7 -29 3.5 -37t-30.5 -15l-41 -10l-270 -72l123 -198l26 -43 q10 -14 6 -22.5t-32 -26.5q-28 -17 -36 -17t-20 19q-6 9 -24 45l-101 207l-178 -215q-6 -6 -15 -18.5t-13 -16.5q-23 -25 -32 -25.5t-32 21.5q-19 16 -20 25t18 30l33 33l196 202l-237 70l-41 12q-12 4 -16.5 6.5t-5.5 10z" />
<glyph unicode="+" horiz-adv-x="1024" d="M221 535l15 86h337l62 344h90l-61 -344h340l-15 -86h-340l-61 -345h-90l61 345h-338z" />
<glyph unicode="," d="M88 -237.5q-3 3.5 2 10.5l86 186q6 15 6 21t-8 14t-8 22q0 43 14 97q6 24 20 33.5t44 9.5q29 0 40 -7.5t11 -27.5q0 -19 -4 -43l-8 -41q-8 -41 -31 -84l-105 -203q-5 -8 -9.5 -8.5t-19.5 5.5q-4 2 -7 3q-20 9 -23 12.5z" />
<glyph unicode="-" horiz-adv-x="741" d="M217 504l16 92h482l-17 -92h-481z" />
<glyph unicode="." d="M166 20q0 39 14 93q6 25 19.5 34t44.5 9q29 0 40 -7t11 -26q0 -52 -16 -98q-7 -22 -21 -29.5t-43 -7.5q-28 0 -38.5 6.5t-10.5 25.5z" />
<glyph unicode="/" horiz-adv-x="868" d="M20 -190l934 1626l82 -41l-934 -1626z" />
<glyph unicode="0" horiz-adv-x="1142" d="M213 330q0 137 43 377.5t100 377.5q29 79 66.5 137t91.5 104t130.5 69.5t174.5 23.5q101 0 171.5 -24t110 -71t56.5 -108t17 -143q0 -136 -43.5 -377t-100.5 -379q-58 -161 -167 -247t-298 -86q-101 0 -171 24t-109 71.5t-55.5 108t-16.5 142.5zM313 332 q0 -129 58.5 -192.5t203.5 -63.5q146 0 226.5 63.5t128.5 198.5q55 131 98 365t43 368q0 129 -58.5 192.5t-203.5 63.5q-146 0 -226 -63.5t-128 -198.5q-53 -130 -97.5 -366t-44.5 -367z" />
<glyph unicode="1" horiz-adv-x="1142" d="M344 0l14 92h224l211 1196l-269 -133l-8 92l311 154h88l-229 -1309h211l-14 -92h-539z" />
<glyph unicode="2" horiz-adv-x="1142" d="M190 0l13 82q314 303 518 526q73 81 119 136.5t97 130.5t76 146.5t25 141.5q0 84 -56 125t-185 41q-174 0 -348 -80l2 97q62 29 161.5 53t198.5 24q177 0 255.5 -61.5t78.5 -183.5q0 -67 -19 -134t-45.5 -120.5t-79 -123.5t-93 -117.5t-113.5 -127.5q-39 -44 -74.5 -82.5 t-75.5 -79.5t-62 -63.5t-67.5 -66.5t-56 -54.5t-64 -61.5t-57.5 -55h620l-14 -92h-754z" />
<glyph unicode="3" horiz-adv-x="1142" d="M190 29l27 96q53 -20 144.5 -37.5t170.5 -17.5q140 0 223 32.5t126 120.5q26 59 42.5 136.5t16.5 146.5q0 88 -67 124t-205 36h-209l16 92h166q128 0 209.5 32t120.5 115q55 113 55 273q0 78 -57.5 114.5t-184.5 36.5q-150 0 -329 -59l6 96q193 55 334 55 q175 0 254 -56.5t79 -172.5q0 -70 -17.5 -165.5t-51.5 -160.5q-27 -52 -70.5 -84.5t-116.5 -60.5q92 -22 132 -67t40 -134q0 -77 -20 -174.5t-59 -167.5q-58 -109 -165.5 -155t-275.5 -46q-79 0 -174.5 15t-159.5 37z" />
<glyph unicode="4" horiz-adv-x="1142" d="M182 432l17 96l790 873h105l-154 -877h184l-16 -92h-184l-74 -432h-102l73 432h-639zM313 524h523l139 715z" />
<glyph unicode="5" horiz-adv-x="1142" d="M201 29l22 94q128 -53 309 -53q139 0 218.5 36t117.5 117q28 62 46 150.5t18 152.5q0 92 -58.5 131t-185.5 39q-140 0 -272 -20h-66l152 725h655q-8 -65 -14 -94h-563l-115 -533q150 17 250 17q164 0 241.5 -60t77.5 -194q0 -67 -14.5 -151t-42.5 -153 q-54 -135 -156 -195.5t-297 -60.5q-192 0 -323 52z" />
<glyph unicode="6" horiz-adv-x="1142" d="M227 307q0 124 61.5 434t125.5 424q70 129 184 192.5t297 63.5q58 0 138.5 -11.5t127.5 -29.5l-26 -94q-115 41 -246 41q-150 0 -241 -49.5t-148 -149.5q-56 -107 -115 -413q239 88 371 88q165 0 238 -58.5t73 -191.5q0 -85 -22 -189.5t-66 -187.5q-56 -107 -151 -153 t-248 -46q-196 0 -274.5 79.5t-78.5 250.5zM328 307q0 -125 57.5 -181t204.5 -56q126 0 196.5 33.5t110.5 119.5q33 68 51.5 158t18.5 160q0 91 -52 129.5t-174 38.5q-154 0 -370 -86q-43 -239 -43 -316z" />
<glyph unicode="7" horiz-adv-x="1142" d="M291 0l790 1309h-637l17 92h753l-14 -76l-801 -1325h-108z" />
<glyph unicode="8" horiz-adv-x="1142" d="M184 258q0 164 72 274q81 138 285 201q-98 42 -144.5 105t-46.5 159q0 140 64 234q120 190 407 190q344 0 344 -268q0 -134 -73 -246q-70 -111 -236 -174q115 -42 168 -109t53 -175q0 -160 -63 -263q-120 -209 -447 -209q-199 0 -291 67t-92 214zM289 262 q0 -103 69 -147.5t220 -44.5q267 0 352 163q45 88 45 213q0 57 -19 98t-59.5 68.5t-87.5 44.5t-119 33q-125 -28 -211.5 -71.5t-134.5 -124.5q-55 -85 -55 -232zM453 995q0 -97 65 -148t187 -81q125 34 198 74t115 116q45 80 45 191q0 182 -252 182q-223 0 -313 -147 q-45 -71 -45 -187z" />
<glyph unicode="9" horiz-adv-x="1142" d="M221 18l27 95q115 -41 246 -41q151 0 241.5 49t147.5 149q53 96 114 414q-235 -88 -368 -88q-166 0 -239 58.5t-73 191.5q0 84 22.5 189t66.5 188q55 107 149.5 152.5t249.5 45.5q196 0 274 -79t78 -250q0 -124 -61 -434.5t-125 -424.5q-71 -129 -186 -192.5t-298 -63.5 q-58 0 -138.5 11.5t-127.5 29.5zM416 858q0 -91 51.5 -129.5t173.5 -38.5q157 0 373 86q43 239 43 316q0 124 -58 180.5t-204 56.5q-127 0 -198.5 -33.5t-111.5 -119.5q-33 -67 -51 -157t-18 -161z" />
<glyph unicode=":" d="M166 20q0 39 14 93q6 25 19.5 34t44.5 9q29 0 40 -7t11 -26q0 -52 -16 -98q-7 -22 -21 -29.5t-43 -7.5q-28 0 -38.5 6.5t-10.5 25.5zM281 680q0 38 14 92q6 25 19 34t44 9q29 0 40.5 -7t11.5 -26q0 -49 -17 -98q-7 -22 -20.5 -29.5t-42.5 -7.5q-28 0 -38.5 7t-10.5 26z " />
<glyph unicode=";" d="M88 -237.5q-3 3.5 2 10.5l86 186q6 15 6 21t-8 14t-8 22q0 43 14 97q6 24 20 33.5t44 9.5q29 0 40 -7.5t11 -27.5q0 -19 -4 -43l-8 -41q-8 -41 -31 -84l-105 -203q-5 -8 -9.5 -8.5t-19.5 5.5q-4 2 -7 3q-20 9 -23 12.5zM281 680q0 38 14 92q6 25 19 34t44 9q29 0 40.5 -7 t11.5 -26q0 -49 -17 -98q-7 -22 -20.5 -29.5t-42.5 -7.5q-28 0 -38.5 7t-10.5 26z" />
<glyph unicode="&#x3c;" horiz-adv-x="1024" d="M219 528l19 103l813 368l24 -84l-753 -340l630 -337l-49 -78z" />
<glyph unicode="=" horiz-adv-x="1024" d="M193 373l14 88h768l-17 -88h-765zM248 694l16 88h768l-16 -88h-768z" />
<glyph unicode="&#x3e;" horiz-adv-x="1024" d="M150 242l753 340l-631 340l50 75l684 -368l-19 -103l-813 -368z" />
<glyph unicode="?" horiz-adv-x="884" d="M289 20q0 39 14 93q6 25 19.5 34t44.5 9q29 0 40 -7t11 -26q0 -49 -17 -98q-7 -22 -20.5 -29.5t-42.5 -7.5q-28 0 -38.5 6.5t-10.5 25.5zM352 1311l6 96q190 45 289 45q169 0 242.5 -56t73.5 -188q0 -183 -78 -311q-29 -47 -71.5 -90t-74 -66t-92.5 -65 q-92 -64 -130 -116.5t-77 -168.5l-82 29q30 114 78.5 183t184.5 165q44 31 64.5 46.5t54 48.5t55.5 67q63 102 63 266q0 89 -50.5 125.5t-172.5 36.5q-123 0 -283 -47z" />
<glyph unicode="@" horiz-adv-x="1789" d="M213 471q0 368 152 612q209 340 710 340q339 0 500.5 -151.5t161.5 -456.5q0 -98 -11 -183.5t-39.5 -167.5t-72.5 -140t-115 -93.5t-162 -35.5q-87 0 -130 24t-68 74q-62 -45 -141 -70.5t-158 -25.5q-123 0 -180.5 55.5t-57.5 169.5q0 95 24 227t70 209q45 77 121 115.5 t199 38.5q129 0 303 -37l-90 -567q-11 -62 18 -90.5t103 -28.5q69 0 121 32.5t82 83t49 122t25.5 138t6.5 142.5q0 263 -134 393.5t-429 130.5q-224 0 -383 -77.5t-246 -227.5q-64 -110 -96.5 -257t-32.5 -300q0 -307 168.5 -450.5t497.5 -143.5q211 0 383 47l14 -86 q-166 -51 -405 -51q-368 0 -563 168t-195 518zM705 434q0 -75 33 -109t116 -34q67 0 138.5 25t127.5 65l86 518q-94 21 -192 21q-160 0 -223 -97q-39 -59 -62.5 -181t-23.5 -208z" />
<glyph unicode="A" horiz-adv-x="1234" d="M61 0l738 1401h121l256 -1401h-107l-78 430h-600l-221 -430h-109zM440 520h537l-137 772z" />
<glyph unicode="B" horiz-adv-x="1146" d="M180 0l246 1401h522q238 0 238 -236q0 -143 -56 -270q-61 -143 -190 -172q174 -29 174 -211q0 -129 -57 -285q-44 -116 -122 -171.5t-208 -55.5h-547zM299 94h422q95 0 152.5 39t91.5 137q45 129 45 234q0 79 -54.5 122.5t-187.5 43.5h-367zM418 762h346q42 0 69.5 2 t61.5 11.5t57.5 27.5t47 50t40.5 79q41 109 41 209q0 82 -38 124t-123 42h-406z" />
<glyph unicode="C" horiz-adv-x="1069" d="M225 332q0 130 50 399t112 402q65 148 182.5 219t321.5 71q184 0 317 -34l-20 -97q-56 14 -150 24.5t-153 10.5q-165 0 -257 -52t-145 -169q-54 -114 -102.5 -383t-48.5 -383q0 -143 73.5 -204.5t258.5 -61.5q176 0 315 37l-16 -99q-55 -14 -147.5 -24.5t-164.5 -10.5 q-122 0 -206 23t-132 70.5t-68 110.5t-20 151z" />
<glyph unicode="D" horiz-adv-x="1236" d="M180 0l246 1401h416q119 0 200 -21.5t127.5 -66t66 -104.5t19.5 -146q0 -124 -47.5 -386t-99.5 -386q-40 -95 -99 -156.5t-161.5 -98t-247.5 -36.5h-420zM299 94h313q165 0 258 57t142 168q48 108 93.5 366.5t45.5 367.5q0 133 -71.5 192.5t-248.5 59.5h-319z" />
<glyph unicode="E" horiz-adv-x="1073" d="M180 0l246 1401h760l-17 -96h-655l-94 -539h588l-17 -94h-588l-102 -576h657l-16 -96h-762z" />
<glyph unicode="F" horiz-adv-x="1001" d="M180 0l246 1401h741l-16 -96h-637l-96 -545h581l-18 -96h-580l-116 -664h-105z" />
<glyph unicode="G" horiz-adv-x="1183" d="M223 326q0 115 47.5 376t104.5 392q44 112 107.5 182t167 108.5t251.5 38.5q178 0 350 -43l-22 -98q-163 45 -334 45q-183 0 -277.5 -61.5t-146.5 -204.5q-52 -124 -97.5 -363.5t-45.5 -365.5q0 -132 71 -195t250 -63q168 0 305 28l80 459h-188l18 94h289l-113 -637 q-209 -41 -403 -41q-119 0 -201 23.5t-128 71t-65.5 108.5t-19.5 146z" />
<glyph unicode="H" horiz-adv-x="1265" d="M180 0l246 1401h104l-110 -627h696l109 627h106l-246 -1401h-106l121 678h-697l-118 -678h-105z" />
<glyph unicode="I" horiz-adv-x="483" d="M190 0l246 1401h105l-246 -1401h-105z" />
<glyph unicode="J" horiz-adv-x="534" d="M49 61q134 38 184 74t66 125l203 1141h104l-200 -1139q-8 -42 -21.5 -75.5t-29 -58.5t-41.5 -46t-48.5 -35t-61 -29t-68 -24t-79.5 -23z" />
<glyph unicode="K" horiz-adv-x="1140" d="M186 0l246 1401h105l-121 -682l700 682h139l-718 -699l528 -702h-127l-526 700l-121 -700h-105z" />
<glyph unicode="L" horiz-adv-x="980" d="M180 0l246 1401h104l-229 -1305h619l-17 -96h-723z" />
<glyph unicode="M" horiz-adv-x="1533" d="M186 0l306 1401h124l207 -1055l582 1055h127l-186 -1401h-105l164 1225l-545 -1002h-115l-190 1002l-266 -1225h-103z" />
<glyph unicode="N" horiz-adv-x="1300" d="M180 0l246 1401h129l483 -1254l219 1254h103l-244 -1401h-129l-485 1247l-219 -1247h-103z" />
<glyph unicode="O" horiz-adv-x="1290" d="M233 348q0 122 44 368.5t104 385.5q67 164 186 242.5t328 78.5q221 0 313 -89.5t92 -280.5q0 -132 -43.5 -375.5t-105.5 -384.5q-67 -161 -186 -238.5t-324 -77.5q-223 0 -315.5 90t-92.5 281zM338 352q0 -146 69.5 -212t241.5 -66q166 0 260.5 62t147.5 194 q55 129 97 364t42 355q0 145 -70.5 211.5t-240.5 66.5q-166 0 -260 -61t-148 -193q-54 -127 -96.5 -367t-42.5 -354z" />
<glyph unicode="P" horiz-adv-x="1118" d="M180 0l246 1401h463q172 0 241.5 -57t69.5 -187q0 -82 -23 -214.5t-65 -217.5q-47 -92 -132 -135t-235 -43h-364l-96 -547h-105zM397 643h355q116 0 177.5 32t94.5 103q33 69 52.5 175.5t19.5 185.5q0 93 -51.5 129.5t-174.5 36.5h-356z" />
<glyph unicode="Q" horiz-adv-x="1290" d="M233 348q0 122 44 368.5t104 385.5q67 164 186 242.5t328 78.5q221 0 313 -89.5t92 -280.5q0 -132 -43.5 -375.5t-105.5 -384.5q-59 -140 -155.5 -216t-252.5 -93v-29q0 -56 30.5 -80.5t103.5 -24.5q41 0 104 13l4 -90q-91 -17 -127 -17q-113 0 -163 36.5t-50 129.5 q0 39 4 55h-8q-223 0 -315.5 90t-92.5 281zM338 352q0 -146 69.5 -212t241.5 -66q166 0 260.5 62t147.5 194q55 129 97 364t42 355q0 145 -70.5 211.5t-240.5 66.5q-166 0 -260 -61t-148 -193q-54 -127 -96.5 -367t-42.5 -354z" />
<glyph unicode="R" horiz-adv-x="1208" d="M180 0l246 1401h510q146 0 206 -64.5t60 -181.5q0 -81 -24 -205.5t-68 -204.5q-71 -134 -229 -161l254 -584h-115l-252 575h-383l-100 -575h-105zM401 672h381q95 0 152 29.5t90 99.5q31 62 51.5 166t20.5 176q0 80 -40.5 121t-135.5 41h-406z" />
<glyph unicode="S" horiz-adv-x="1087" d="M139 27l29 98q72 -24 169 -39.5t181 -15.5q145 0 228.5 39t123.5 114q43 82 43 226q0 92 -61.5 134.5t-230.5 88.5q-83 23 -132.5 42.5t-93.5 50.5t-63 74t-19 105q0 69 19.5 150t56.5 143q54 91 157.5 138.5t278.5 47.5q166 0 334 -41l-26 -98q-138 43 -318 43 q-143 0 -224.5 -36.5t-119.5 -110.5q-49 -87 -49 -213q0 -31 7 -55.5t25 -44.5t37 -34t55.5 -28.5t68 -24.5t85.5 -26q73 -21 121 -39t89.5 -41.5t64 -51.5t35 -65.5t12.5 -87.5q0 -71 -16.5 -154t-51.5 -145q-109 -197 -448 -197q-177 0 -367 54z" />
<glyph unicode="T" horiz-adv-x="1069" d="M285 1305l16 96h959l-17 -96h-428l-229 -1305h-105l230 1305h-426z" />
<glyph unicode="U" horiz-adv-x="1282" d="M233 326q0 56 13 129l168 946h104l-172 -959q-10 -62 -10 -108q0 -262 309 -262q193 0 302 93.5t143 289.5l165 946h105l-168 -946q-18 -101 -55.5 -183t-102 -150.5t-166 -106.5t-233.5 -38q-402 0 -402 349z" />
<glyph unicode="V" horiz-adv-x="1191" d="M283 1401h104l229 -1266l668 1266h113l-748 -1401h-106z" />
<glyph unicode="W" horiz-adv-x="1712" d="M315 1401h103l96 -1243l535 1243h104l92 -1243l533 1243h110l-610 -1401h-121l-88 1214l-524 -1214h-119z" />
<glyph unicode="X" horiz-adv-x="1148" d="M61 0l574 705l-318 696h117l277 -606l489 606h125l-569 -703l321 -698h-116l-281 608l-494 -608h-125z" />
<glyph unicode="Y" horiz-adv-x="1097" d="M272 1401h111l268 -793l549 793h117l-631 -907l-84 -494h-104l86 492z" />
<glyph unicode="Z" horiz-adv-x="1153" d="M123 0l12 86l979 1219h-752l17 96h878l-16 -92l-975 -1213h772l-14 -96h-901z" />
<glyph unicode="[" horiz-adv-x="567" d="M133 -319l340 1927h340l-16 -90h-240l-309 -1747h241l-16 -90h-340z" />
<glyph unicode="\" horiz-adv-x="868" d="M324 1403l92 33l356 -1633l-92 -34z" />
<glyph unicode="]" horiz-adv-x="567" d="M-20 -319l16 90h237l310 1747h-242l16 90h342l-340 -1927h-339z" />
<glyph unicode="^" horiz-adv-x="1024" d="M315 936l400 498h96l223 -498l-90 -45l-199 450l-356 -450z" />
<glyph unicode="_" horiz-adv-x="1024" d="M-53 -256l14 80h1038l-14 -80h-1038z" />
<glyph unicode="`" horiz-adv-x="681" d="M342 1278l18 96l336 -184l-32 -76z" />
<glyph unicode="a" horiz-adv-x="1038" d="M184 227q0 92 21.5 224t54.5 245q33 115 82 181t137.5 100.5t229.5 34.5q173 0 333 -31l-172 -981h-90l11 94q-75 -49 -169.5 -83t-183.5 -34q-137 0 -195.5 59.5t-58.5 190.5zM289 242q0 -93 38 -133.5t132 -40.5q143 0 342 125l125 710q-136 21 -232 21 q-119 0 -188.5 -35t-106.5 -105q-40 -76 -75 -252t-35 -290z" />
<glyph unicode="b" horiz-adv-x="1030" d="M166 10l250 1417l108 25l-90 -510q175 72 336 72q134 0 192 -55t58 -193q0 -116 -29 -278.5t-71 -260.5q-50 -125 -145 -187.5t-265 -62.5q-61 0 -164.5 8.5t-179.5 24.5zM283 88q127 -20 235 -20q87 0 149 25.5t97 67t59 103.5q37 87 64.5 235t27.5 253q0 95 -38 132.5 t-127 37.5q-156 0 -334 -78z" />
<glyph unicode="c" horiz-adv-x="872" d="M180 256q0 99 31 256.5t72 247.5q36 86 86.5 140t130 83t192.5 29q135 0 252 -19l-24 -96q-115 23 -236 23q-123 0 -193.5 -42.5t-111.5 -144.5q-36 -81 -66 -229t-30 -242q0 -102 54 -146t189 -44q91 0 244 26l-6 -96q-143 -25 -248 -25q-186 0 -261 68t-75 211z" />
<glyph unicode="d" horiz-adv-x="1040" d="M172 186q0 109 37 306.5t78 298.5q47 123 131 171t248 48q124 0 276 -29l78 446l108 25l-256 -1452h-94l15 113q-77 -59 -177 -97.5t-178 -38.5q-151 0 -208.5 43.5t-57.5 165.5zM279 205q0 -78 39 -107.5t139 -29.5q84 0 180.5 45t169.5 104l117 672q-172 33 -275 33 q-112 0 -172 -36t-94 -124q-36 -88 -70 -272t-34 -285z" />
<glyph unicode="e" horiz-adv-x="942" d="M176 248q0 115 28 267t68 245q52 124 149.5 189t258.5 65q90 0 151 -18t95 -54t48.5 -82t14.5 -110q0 -176 -97.5 -257t-299.5 -81q-65 0 -122 4.5t-81.5 8.5t-93.5 15q-19 -133 -19 -186q0 -101 54 -143.5t188 -42.5q180 0 338 51l-12 -94q-74 -23 -172 -35.5 t-172 -12.5q-183 0 -253.5 64.5t-70.5 206.5zM311 530q147 -26 281 -26q150 0 223.5 56t73.5 183q0 94 -50 136.5t-167 42.5q-118 0 -190.5 -45.5t-112.5 -143.5q-33 -72 -58 -203z" />
<glyph unicode="f" horiz-adv-x="712" d="M160 -418l227 1297h-164l17 90h163l41 231q24 131 102.5 193.5t227.5 62.5q83 0 160 -18l-19 -88q-102 18 -153 18q-99 0 -149.5 -41.5t-65.5 -134.5l-41 -223h289l-39 -90h-267l-221 -1270z" />
<glyph unicode="g" horiz-adv-x="1038" d="M80 -377l20 92q152 -45 322 -45q142 0 221.5 45.5t97.5 145.5l37 192q-69 -28 -160.5 -47.5t-177.5 -19.5q-144 0 -201 56.5t-57 178.5q0 110 32 274t77 261q56 135 153.5 195.5t264.5 60.5q175 0 333 -31l-196 -1124q-27 -148 -133.5 -212.5t-298.5 -64.5 q-189 0 -334 43zM287 242q0 -87 39 -125.5t135 -38.5q159 0 332 72l133 753q-144 21 -230 21q-124 0 -195 -45t-116 -148q-39 -89 -68.5 -239t-29.5 -250z" />
<glyph unicode="h" horiz-adv-x="1042" d="M166 0l250 1427l110 25l-100 -565q248 125 403 125q195 0 195 -160q0 -28 -6 -68l-137 -784h-103l133 780q7 31 7 51q0 87 -111 87q-76 0 -186 -36.5t-213 -90.5l-138 -791h-104z" />
<glyph unicode="i" d="M170 0l172 989h102l-172 -989h-102zM381 1227q0 30 16 92q6 25 19 34t45 9q29 0 40 -7t11 -26q0 -55 -18 -98q-6 -22 -19 -29.5t-43 -7.5q-29 0 -40 7t-11 26z" />
<glyph unicode="j" d="M-98 -326q135 39 184 86t68 150l188 1079h102l-188 -1085q-17 -76 -41 -125t-67 -86t-97 -60.5t-143 -48.5zM381 1227q0 30 16 92q6 25 19 34t45 9q29 0 40 -7t11 -26q0 -55 -18 -98q-6 -22 -19 -29.5t-43 -7.5q-29 0 -40 7t-11 26z" />
<glyph unicode="k" horiz-adv-x="917" d="M166 0l250 1427l110 25l-161 -907l514 444h141l-533 -457l381 -532h-127l-376 537l-95 -537h-104z" />
<glyph unicode="l" horiz-adv-x="526" d="M178 90q0 42 17 119l215 1218l108 25l-225 -1262q-10 -45 -10 -79q0 -45 63 -45q49 0 119 16l10 -84q-78 -21 -158 -21q-76 0 -107.5 28t-31.5 85z" />
<glyph unicode="m" horiz-adv-x="1572" d="M168 0l172 989h96l-10 -104q231 129 393 129q164 0 170 -129q77 37 130.5 60.5t131.5 46t138 22.5q91 0 130.5 -36.5t39.5 -107.5q0 -12 -9 -77l-137 -793h-104l139 791q6 54 6 61q0 38 -26 53t-74 15q-67 0 -169.5 -34.5t-205.5 -94.5l-137 -791h-103l138 791q4 18 4 61 q0 68 -95 68q-63 0 -170 -36.5t-206 -95.5l-140 -788h-102z" />
<glyph unicode="n" horiz-adv-x="1042" d="M166 0l174 989h96l-12 -102q248 125 405 125q195 0 195 -160q0 -28 -6 -68l-137 -784h-103l133 780q7 31 7 51q0 87 -111 87q-76 0 -186 -36.5t-213 -90.5l-138 -791h-104z" />
<glyph unicode="o" horiz-adv-x="1044" d="M186 264q0 101 29.5 256.5t71.5 247.5q53 123 148.5 183.5t260.5 60.5q182 0 256 -70.5t74 -218.5q0 -107 -26.5 -253t-69.5 -241q-55 -127 -151 -189.5t-263 -62.5q-182 0 -256 70t-74 217zM289 268q0 -105 52.5 -151.5t184.5 -46.5q129 0 201 46.5t111 149.5 q37 86 61.5 221t24.5 232q0 106 -53 153.5t-183 47.5q-127 0 -197 -42t-110 -137q-37 -86 -64.5 -233t-27.5 -240z" />
<glyph unicode="p" horiz-adv-x="1052" d="M90 -416l248 1405h96l-16 -117q79 62 178 101t182 39q141 0 197.5 -61t56.5 -189q0 -87 -22 -221.5t-56 -249.5q-43 -148 -136 -229.5t-255 -81.5q-125 0 -295 34l-69 -405zM287 106q155 -38 282 -38q109 0 181.5 66t105.5 177q31 100 51.5 227t20.5 212q0 89 -38 130.5 t-130 41.5q-86 0 -183 -45.5t-174 -106.5z" />
<glyph unicode="q" horiz-adv-x="1038" d="M186 229q0 188 72 455q33 118 81.5 187t139 106t232.5 37q176 0 333 -33l-241 -1372l-107 -27l80 461q-173 -66 -327 -66q-144 0 -203.5 59.5t-59.5 192.5zM291 256q0 -97 42.5 -141.5t143.5 -44.5q146 0 318 69l133 764q-111 21 -238 21q-105 0 -173 -31.5t-103.5 -87.5 t-59.5 -150q-63 -239 -63 -399z" />
<glyph unicode="r" horiz-adv-x="649" d="M168 0l174 989h96l-16 -131q93 62 178 98.5t191 57.5l-17 -109q-167 -21 -368 -143l-134 -762h-104z" />
<glyph unicode="s" horiz-adv-x="876" d="M135 16l27 90q126 -36 254 -36q110 0 171.5 20t90.5 74q41 77 41 178q0 39 -40.5 62t-168.5 57q-156 40 -209 79t-53 113q0 123 43 205q81 156 342 156q138 0 276 -27l-28 -92q-152 27 -265 27q-188 0 -237 -99q-29 -66 -29 -149q0 -40 37.5 -63t151.5 -52 q169 -46 225.5 -85.5t56.5 -111.5q0 -51 -15.5 -123.5t-43.5 -121.5q-46 -77 -132 -108.5t-227 -31.5q-135 0 -268 39z" />
<glyph unicode="t" horiz-adv-x="706" d="M209 879l14 90h170l49 270l107 27l-53 -297h284l-41 -90h-260l-114 -650q-15 -77 -15 -102q0 -30 19.5 -42.5t72.5 -12.5q96 0 205 32l-4 -92q-125 -32 -225 -32q-96 0 -134 31t-38 100q0 43 16 125l115 643h-168z" />
<glyph unicode="u" horiz-adv-x="1042" d="M188 139q0 21 7 68l135 782h102l-133 -778q-6 -27 -6 -51q0 -86 110 -86q77 0 188 36t212 89l139 790h102l-172 -989h-96l10 104q-241 -124 -405 -124q-193 0 -193 159z" />
<glyph unicode="v" horiz-adv-x="866" d="M203 989h110l138 -858l444 858h111l-519 -989h-114z" />
<glyph unicode="w" horiz-adv-x="1398" d="M221 989h101l84 -872l378 684h107l139 -684l383 872h109l-445 -989h-121l-135 684l-377 -684h-122z" />
<glyph unicode="x" horiz-adv-x="897" d="M37 0l440 510l-246 479h117l199 -401l342 401h123l-418 -485l262 -504h-117l-217 424l-362 -424h-123z" />
<glyph unicode="y" horiz-adv-x="876" d="M154 -412l227 412l-182 989h108l152 -846l448 846h111l-758 -1401h-106z" />
<glyph unicode="z" horiz-adv-x="919" d="M111 0l12 80l696 819h-518l14 90h643l-12 -84l-694 -815h565l-14 -90h-692z" />
<glyph unicode="{" horiz-adv-x="600" d="M145 537l17 92q84 5 128.5 48t61.5 140l82 473q14 78 46 133t83 87t113 47.5t145 19.5l-16 -92q-53 -2 -93 -10t-79 -28t-65 -60t-36 -99l-79 -450q-35 -207 -156 -256q76 -31 76 -146q0 -40 -11 -108l-79 -451q-7 -28 -7 -49q0 -79 53.5 -110.5t155.5 -36.5l-16 -93 q-147 6 -220 53.5t-73 159.5q0 22 8 76l82 471q8 54 8 76q0 28 -8 48.5t-18.5 32t-30.5 18.5t-34 9.5t-38 4.5z" />
<glyph unicode="|" horiz-adv-x="505" d="M131 -422l336 1901h90l-336 -1901h-90z" />
<glyph unicode="}" horiz-adv-x="600" d="M-20 -412l16 93q42 1 74.5 6t67 17.5t59 33.5t44 56t27.5 83l80 451q35 207 156 256q-76 31 -76 145q0 47 10 109l80 450q6 24 6 49q0 79 -54 111t-155 37l17 92q147 -6 220 -53.5t73 -159.5q0 -15 -9 -76l-81 -471q-9 -61 -9 -76q0 -35 10 -57.5t32 -33.5t39 -14.5 t48 -6.5l-16 -92q-84 -5 -128.5 -48.5t-61.5 -140.5l-82 -473q-14 -78 -46 -133t-83 -87t-113 -47.5t-145 -19.5z" />
<glyph unicode="~" horiz-adv-x="1024" d="M199 553q122 147 260 147q49 0 97 -19.5t79.5 -43t74 -43t81.5 -19.5q69 0 118.5 34t102.5 100l14 -84q-119 -144 -250 -144q-52 0 -99.5 20t-77.5 43.5t-70.5 43.5t-79.5 20q-69 0 -120 -32t-114 -105z" />
<glyph unicode="&#xa1;" horiz-adv-x="452" d="M100 -416l144 766l73 363h70l-55 -363l-129 -766h-103zM328 891q0 52 16 98q7 22 21 29.5t43 7.5q28 0 38.5 -7t10.5 -26q0 -34 -15 -92q-6 -25 -19 -34t-44 -9q-29 0 -40 7t-11 26z" />
<glyph unicode="&#xa2;" horiz-adv-x="892" d="M215 457q0 99 30.5 257t71.5 249q49 120 137.5 182t237.5 69l39 216h88l-39 -216q96 -3 199 -20l-25 -96q-95 17 -190 22l-150 -846q80 5 191 27l-6 -96q-126 -23 -199 -25l-37 -209h-90l37 209q-163 7 -229 74.5t-66 202.5zM317 463q0 -94 46.5 -139.5t162.5 -49.5 l150 846q-101 -6 -162.5 -49t-99.5 -135q-36 -83 -66.5 -231.5t-30.5 -241.5z" />
<glyph unicode="&#xa3;" horiz-adv-x="1142" d="M170 -6l8 78l113 34q180 248 180 465q0 50 -8 86h-209l18 91h172q-2 7 -13 40t-14.5 46t-10 39t-9 48.5t-2.5 47.5q0 208 118 321t349 113q74 0 163.5 -16.5t141.5 -38.5l-26 -99q-54 26 -135.5 43t-157.5 17q-348 0 -348 -330q0 -39 7.5 -75t23 -86t20.5 -70h420 l-51 -91h-355q6 -35 6 -69q0 -224 -198 -494h612l-10 -94h-656q-85 0 -149 -6z" />
<glyph unicode="&#xa4;" horiz-adv-x="1140" d="M225 250l135 139q-94 121 -94 275t94 272l-133 141l56 60l135 -142q120 99 268 99q147 0 264 -99l140 142l55 -58l-135 -143q94 -118 94 -272q0 -157 -96 -273l137 -141l-58 -57l-137 139q-117 -96 -264 -96q-153 0 -266 96l-137 -142zM354 664q0 -142 97.5 -242 t234.5 -100t233.5 100t96.5 242t-96.5 242t-233.5 100t-234.5 -100t-97.5 -242z" />
<glyph unicode="&#xa5;" horiz-adv-x="1142" d="M225 317l15 89h350l16 90l-51 153h-272l16 86h227l-223 666h109l262 -791l540 791h115l-459 -666h230l-17 -86h-274l-100 -153l-17 -90h348l-14 -89h-348l-55 -317h-103l55 317h-350z" />
<glyph unicode="&#xa6;" horiz-adv-x="505" d="M133 -412l139 785h90l-139 -785h-90zM328 696l139 785h90l-139 -785h-90z" />
<glyph unicode="&#xa7;" horiz-adv-x="1087" d="M102 -356l31 96q118 -59 320 -59q73 0 137.5 17t116.5 50t82 88t30 125q0 56 -32 100.5t-83.5 74t-113 56t-123.5 54.5t-113.5 61.5t-83.5 86t-32 118.5q0 100 67.5 187.5t173.5 136.5q-123 75 -123 217q0 166 130 267t333 101q188 0 311 -49l-24 -96q-113 51 -297 51 q-65 0 -126 -15.5t-112.5 -45.5t-82.5 -81t-31 -116q0 -26 8 -50t19 -42t31.5 -36.5t37.5 -30t45.5 -26.5t46.5 -23t49.5 -21.5t46.5 -20.5q46 -21 73.5 -35t67 -36.5t62.5 -43t46 -48t33.5 -59.5t10.5 -69q0 -93 -75.5 -173t-192.5 -142q75 -45 113.5 -102.5t38.5 -145.5 q0 -164 -133.5 -271.5t-335.5 -107.5q-198 0 -347 58zM338 528q0 -29 9 -54.5t22 -45t37.5 -39.5t44.5 -32.5t55.5 -29t58 -25.5t63.5 -25t62 -25q44 24 70 40t63.5 43.5t58.5 52t36.5 58t15.5 68.5q0 55 -55.5 107.5t-132.5 90.5t-191 81q-100 -46 -158.5 -115t-58.5 -150z " />
<glyph unicode="&#xa8;" horiz-adv-x="681" d="M328 1210q0 36 14 90q6 23 19.5 32t44.5 9q30 0 40.5 -7t10.5 -27q0 -25 -17 -95q-6 -20 -18.5 -27t-42.5 -7q-29 0 -40 6.5t-11 25.5zM659 1210q0 32 15 90q6 23 19.5 32t43.5 9t40.5 -7t10.5 -27q0 -29 -16 -95q-6 -20 -18.5 -27t-42.5 -7t-41 6.5t-11 25.5z" />
<glyph unicode="&#xa9;" horiz-adv-x="1695" d="M231 532q0 140 36.5 271t109 243.5t174 196.5t239.5 132t297 48q305 0 461 -150t156 -413q0 -184 -61 -345.5t-170.5 -280.5t-270.5 -188t-352 -69q-305 0 -462 148.5t-157 406.5zM317 532q0 -219 133.5 -346t399.5 -127q170 0 315.5 64t243.5 173t153.5 255.5 t55.5 310.5q0 221 -133 349t-398 128q-177 0 -324 -64.5t-243.5 -175.5t-149.5 -257t-53 -310zM645 502q0 65 17.5 174.5t46.5 197.5q38 121 110 174.5t213 53.5q99 0 232 -27l-21 -84q-107 29 -217 29q-84 0 -132 -22t-73 -70q-38 -77 -62 -208t-24 -218q0 -69 41 -99 t139 -30q107 0 224 24l-9 -82q-110 -24 -223 -24q-146 0 -204 47.5t-58 163.5z" />
<glyph unicode="&#xaa;" horiz-adv-x="751" d="M276 963q0 147 50 286q37 105 101 150t198 45q96 0 229 -19l-111 -616h-75v39q-35 -20 -103 -35.5t-121 -15.5q-96 0 -132 39.5t-36 126.5zM362 973q0 -53 22 -77t79 -24q95 0 217 54l76 432q-61 10 -140 10q-96 0 -141.5 -33t-71.5 -110q-41 -134 -41 -252z" />
<glyph unicode="&#xab;" horiz-adv-x="927" d="M156 453l16 92l385 366l59 -71l-370 -351l237 -342l-71 -61zM528 453l17 92l385 366l59 -71l-371 -351l238 -342l-72 -61z" />
<glyph unicode="&#xac;" horiz-adv-x="1071" d="M229 586l17 88h768l-78 -438h-92l61 350h-676z" />
<glyph unicode="&#xad;" horiz-adv-x="741" d="M217 504l16 92h482l-17 -92h-481z" />
<glyph unicode="&#xae;" horiz-adv-x="1355" d="M264 752q0 140 45 265.5t127.5 220.5t208.5 150.5t279 55.5q241 0 357 -112t116 -318q0 -143 -45.5 -268t-129 -217.5t-207.5 -145.5t-274 -53q-241 0 -359 110.5t-118 311.5zM346 758q0 -167 96 -258.5t299 -91.5q138 0 248.5 47.5t181.5 130.5t108.5 192.5t37.5 235.5 q0 350 -393 350q-179 0 -311.5 -80.5t-199.5 -217t-67 -308.5zM575 588l107 604h244q76 0 108.5 -30.5t32.5 -90.5q0 -98 -35 -160q-37 -69 -102 -86l112 -237h-84l-108 229h-158l-41 -229h-76zM702 887h168q70 0 97 53q22 46 22 121q0 31 -19.5 46t-64.5 15h-160z" />
<glyph unicode="&#xaf;" horiz-adv-x="681" d="M305 1200l14 82h492l-16 -82h-490z" />
<glyph unicode="&#xb0;" horiz-adv-x="692" d="M317 1147q0 104 83 182t184 78q87 0 143.5 -57t56.5 -142q0 -104 -81 -184t-183 -80q-89 0 -146 57.5t-57 145.5zM391 1147q0 -54 37 -91.5t92 -37.5q74 0 132.5 57t58.5 133q0 53 -36.5 89t-90.5 36q-73 0 -133 -55.5t-60 -130.5z" />
<glyph unicode="&#xb1;" horiz-adv-x="1024" d="M127 0l14 88h768l-14 -88h-768zM227 573l15 89h338l59 342h90l-59 -342h340l-15 -89h-340l-61 -342h-90l61 342h-338z" />
<glyph unicode="&#xb2;" horiz-adv-x="780" d="M213 489l12 72q217 201 344 334q100 106 151.5 182.5t51.5 151.5q0 52 -36.5 77t-119.5 25q-123 0 -239 -53l4 84q117 53 252 53q123 0 178 -42.5t55 -123.5q0 -98 -56 -188t-173 -211q-99 -104 -293 -281h408l-13 -80h-526z" />
<glyph unicode="&#xb3;" horiz-adv-x="780" d="M211 512l27 84q103 -41 217 -41q86 0 136.5 18.5t78.5 67.5q39 73 39 168q0 57 -41.5 79.5t-126.5 22.5h-154l14 80h113q86 0 138 19.5t77 70.5q33 71 33 158q0 49 -38 71.5t-118 22.5q-91 0 -225 -41l6 84q135 37 231 37q123 0 179.5 -39.5t56.5 -118.5 q0 -44 -11.5 -102t-33.5 -100q-34 -59 -117 -92q58 -15 83.5 -46t25.5 -88q0 -135 -58 -227q-74 -125 -299 -125q-135 0 -233 37z" />
<glyph unicode="&#xb4;" horiz-adv-x="681" d="M403 1198l398 176l-13 -104l-380 -156z" />
<glyph unicode="&#xb5;" horiz-adv-x="1042" d="M80 -416l250 1405h100l-137 -786q-4 -24 -4 -35q0 -96 117 -96q72 0 184 37t213 90l137 790h102l-172 -989h-94l10 102q-246 -122 -409 -122q-81 0 -119 30q-14 -71 -37.5 -206.5t-34.5 -194.5z" />
<glyph unicode="&#xb6;" horiz-adv-x="1148" d="M219 928q2 147 74 255.5t192 163t271 54.5h534l-33 -84h-127l-301 -1704l-96 -27l305 1731h-237l-301 -1704l-97 -27l179 1014q-164 0 -263.5 93.5t-99.5 234.5z" />
<glyph unicode="&#xb7;" d="M256 535q0 38 14 92q6 25 19.5 34t44.5 9q29 0 40 -7t11 -26q0 -52 -16 -98q-7 -22 -21 -29.5t-43 -7.5q-28 0 -38.5 7t-10.5 26z" />
<glyph unicode="&#xb8;" horiz-adv-x="681" d="M137 -395l25 67q62 -10 121 -10q108 0 114 39l17 92q3 18 -21.5 25.5t-79.5 7.5q-18 0 -34 -4l-39 18l65 164h70l-49 -113h30q72 0 109 -24t37 -64q0 -10 -2 -20l-15 -78q-10 -58 -54.5 -85.5t-149.5 -27.5q-85 0 -144 13z" />
<glyph unicode="&#xb9;" horiz-adv-x="780" d="M313 489l13 80h153l129 731l-180 -86l-8 82l221 105h76l-146 -832h146l-12 -80h-392z" />
<glyph unicode="&#xba;" horiz-adv-x="800" d="M324 995q0 155 59 285q37 81 101 122.5t169 41.5q116 0 165.5 -49t49.5 -148q0 -171 -61 -293q-37 -78 -100.5 -117.5t-167.5 -39.5q-116 0 -165.5 49.5t-49.5 148.5zM408 995q0 -64 32 -92.5t107 -28.5q76 0 118.5 27.5t67.5 89.5q49 106 49 254q0 64 -31 92.5 t-106 28.5q-74 0 -116.5 -27t-67.5 -86q-53 -128 -53 -258z" />
<glyph unicode="&#xbb;" horiz-adv-x="927" d="M92 158l373 352l-238 340l72 61l256 -366l-14 -92l-389 -367zM465 158l373 352l-238 340l72 61l256 -366l-15 -92l-389 -367z" />
<glyph unicode="&#xbc;" horiz-adv-x="1855" d="M313 489l13 80h153l129 731l-180 -86l-8 82l221 105h76l-146 -832h146l-12 -80h-392zM602 8l860 1436l84 -27l-862 -1437zM1188 264l12 82l529 565h96l-101 -567h125l-14 -80h-123l-47 -264h-92l47 264h-432zM1305 344h327l82 436z" />
<glyph unicode="&#xbd;" horiz-adv-x="1855" d="M313 489l13 80h153l129 731l-180 -86l-8 82l221 105h76l-146 -832h146l-12 -80h-392zM582 8l860 1436l84 -27l-862 -1437zM1200 0l12 72q217 201 344 334q101 106 152 182t51 151q0 52 -36 77.5t-119 25.5q-122 0 -240 -54l4 84q119 54 252 54q123 0 178 -42.5t55 -123.5 q0 -98 -56 -189t-173 -211q-35 -36 -66.5 -68t-64.5 -63t-52 -49t-58 -53t-52 -47h408l-13 -80h-526z" />
<glyph unicode="&#xbe;" horiz-adv-x="1855" d="M211 512l27 84q103 -41 217 -41q86 0 136.5 18.5t78.5 67.5q39 73 39 168q0 57 -41.5 79.5t-126.5 22.5h-154l14 80h113q86 0 138 19.5t77 70.5q33 71 33 158q0 49 -38 71.5t-118 22.5q-91 0 -225 -41l6 84q135 37 231 37q123 0 179.5 -39.5t56.5 -118.5 q0 -44 -11.5 -102t-33.5 -100q-34 -59 -117 -92q58 -15 83.5 -46t25.5 -88q0 -135 -58 -227q-74 -125 -299 -125q-135 0 -233 37zM602 8l860 1436l84 -27l-862 -1437zM1188 264l12 82l529 565h96l-101 -567h125l-14 -80h-123l-47 -264h-92l47 264h-432zM1305 344h327l82 436 z" />
<glyph unicode="&#xbf;" horiz-adv-x="884" d="M96 -195q0 184 78 312q29 47 71.5 90t74 66t92.5 65q92 63 129.5 116t76.5 169l82 -29q-16 -59 -30 -95t-42 -78.5t-73 -83t-117 -91.5q-44 -31 -64.5 -46.5t-54 -48.5t-55.5 -67q-63 -102 -63 -266q0 -89 50.5 -125.5t172.5 -36.5q123 0 283 47l-7 -96 q-190 -45 -288 -45q-169 0 -242.5 55.5t-73.5 187.5zM641 891q0 52 16 98q7 22 21 29.5t43 7.5q28 0 38.5 -7t10.5 -26q0 -38 -14 -92q-6 -25 -19.5 -34t-44.5 -9q-29 0 -40 7t-11 26z" />
<glyph unicode="&#xc0;" horiz-adv-x="1234" d="M61 0l738 1401h121l256 -1401h-107l-78 430h-600l-221 -430h-109zM440 520h537l-137 772zM682 1661l18 96l336 -184l-32 -76z" />
<glyph unicode="&#xc1;" horiz-adv-x="1234" d="M61 0l738 1401h121l256 -1401h-107l-78 430h-600l-221 -430h-109zM440 520h537l-137 772zM748 1581l397 176l-12 -104l-381 -156z" />
<glyph unicode="&#xc2;" horiz-adv-x="1234" d="M61 0l738 1401h121l256 -1401h-107l-78 430h-600l-221 -430h-109zM440 520h537l-137 772zM586 1573l334 176l276 -174l-47 -74l-242 148l-297 -150z" />
<glyph unicode="&#xc3;" horiz-adv-x="1234" d="M61 0l738 1401h121l256 -1401h-107l-78 430h-600l-221 -430h-109zM440 520h537l-137 772zM631 1559l6 83q63 48 149 48q49 0 130 -30t116 -30q75 0 137 45l-6 -84q-62 -47 -151 -47q-42 0 -124.5 30t-119.5 30q-80 0 -137 -45z" />
<glyph unicode="&#xc4;" horiz-adv-x="1234" d="M61 0l738 1401h121l256 -1401h-107l-78 430h-600l-221 -430h-109zM440 520h537l-137 772zM670 1593q0 36 14 90q6 23 19.5 32t44.5 9q30 0 40.5 -7t10.5 -27q0 -25 -17 -95q-6 -20 -18.5 -27t-42.5 -7q-29 0 -40 6.5t-11 25.5zM1001 1593q0 32 15 90q6 23 19.5 32t43.5 9 t40.5 -7t10.5 -27q0 -29 -16 -95q-6 -20 -18.5 -27t-42.5 -7t-41 6.5t-11 25.5z" />
<glyph unicode="&#xc5;" horiz-adv-x="1234" d="M61 0l738 1401h121l256 -1401h-107l-78 430h-600l-221 -430h-109zM440 520h537l-137 772zM756 1620q0 68 47 115t119 47q56 0 90.5 -32t34.5 -87q0 -70 -46 -117t-112 -47q-64 0 -98.5 32.5t-34.5 88.5zM823 1624q0 -27 18.5 -43t51.5 -16q38 0 64 26t26 66 q0 28 -17 43.5t-48 15.5q-40 0 -67.5 -25.5t-27.5 -66.5z" />
<glyph unicode="&#xc6;" horiz-adv-x="1738" d="M49 0l887 1401h915l-16 -96h-748l17 -535h569l-16 -96h-551l14 -580h504l-16 -94h-586l-12 428h-570l-270 -428h-121zM500 520h508l-23 778z" />
<glyph unicode="&#xc7;" horiz-adv-x="1069" d="M225 332q0 130 50 399t112 402q65 148 182.5 219t321.5 71q184 0 317 -34l-20 -97q-56 14 -150 24.5t-153 10.5q-165 0 -257 -52t-145 -169q-54 -114 -102.5 -383t-48.5 -383q0 -143 73.5 -204.5t258.5 -61.5q176 0 315 37l-16 -99q-55 -14 -147.5 -24.5t-164.5 -10.5 h-28l-37 -86h30q72 0 109 -24t37 -64q0 -10 -2 -20l-15 -78q-10 -58 -54.5 -85.5t-149.5 -27.5q-85 0 -144 13l25 67q62 -10 121 -10q108 0 114 39l17 92q3 18 -21.5 25.5t-79.5 7.5q-18 0 -34 -4l-39 18l55 142q-182 17 -256 103t-74 247z" />
<glyph unicode="&#xc8;" horiz-adv-x="1073" d="M180 0l246 1401h760l-17 -96h-655l-94 -539h588l-17 -94h-588l-102 -576h657l-16 -96h-762zM635 1661l18 96l336 -184l-33 -76z" />
<glyph unicode="&#xc9;" horiz-adv-x="1073" d="M180 0l246 1401h760l-17 -96h-655l-94 -539h588l-17 -94h-588l-102 -576h657l-16 -96h-762zM686 1581l397 176l-12 -104l-381 -156z" />
<glyph unicode="&#xca;" horiz-adv-x="1073" d="M180 0l246 1401h760l-17 -96h-655l-94 -539h588l-17 -94h-588l-102 -576h657l-16 -96h-762zM516 1573l334 176l276 -174l-47 -74l-241 148l-297 -150z" />
<glyph unicode="&#xcb;" horiz-adv-x="1073" d="M180 0l246 1401h760l-17 -96h-655l-94 -539h588l-17 -94h-588l-102 -576h657l-16 -96h-762zM608 1593q0 32 15 90q6 23 19.5 32t43.5 9t40.5 -7t10.5 -27q0 -29 -16 -95q-6 -20 -19 -27t-43 -7q-29 0 -40 6.5t-11 25.5zM940 1593q0 36 14 90q6 23 19.5 32t44.5 9 q30 0 40.5 -7t10.5 -27q0 -29 -16 -95q-6 -20 -19 -27t-43 -7q-29 0 -40 6.5t-11 25.5z" />
<glyph unicode="&#xcc;" horiz-adv-x="483" d="M190 0l246 1401h105l-246 -1401h-105zM309 1661l19 96l336 -184l-33 -76z" />
<glyph unicode="&#xcd;" horiz-adv-x="483" d="M190 0l246 1401h105l-246 -1401h-105zM375 1581l397 176l-12 -104l-381 -156z" />
<glyph unicode="&#xce;" horiz-adv-x="483" d="M190 0l246 1401h105l-246 -1401h-105zM213 1573l334 176l276 -174l-47 -74l-241 148l-297 -150z" />
<glyph unicode="&#xcf;" horiz-adv-x="483" d="M190 0l246 1401h105l-246 -1401h-105zM299 1593q0 36 14 90q6 23 19.5 32t44.5 9q30 0 40.5 -7t10.5 -27q0 -29 -16 -95q-6 -20 -19 -27t-43 -7q-29 0 -40 6.5t-11 25.5zM631 1593q0 36 14 90q6 23 19.5 32t44.5 9q30 0 40.5 -7t10.5 -27q0 -25 -17 -95q-6 -20 -18.5 -27 t-42.5 -7q-29 0 -40 6.5t-11 25.5z" />
<glyph unicode="&#xd0;" horiz-adv-x="1236" d="M139 662l17 94h155l115 645h416q119 0 200 -21.5t127.5 -66t66 -104.5t19.5 -146q0 -124 -47.5 -386t-99.5 -386q-40 -95 -99 -156.5t-161.5 -98t-247.5 -36.5h-420l115 662h-156zM299 94h313q165 0 258 57t142 168q48 108 93.5 366.5t45.5 367.5q0 133 -71.5 192.5 t-248.5 59.5h-319l-98 -549h350l-16 -94h-351z" />
<glyph unicode="&#xd1;" horiz-adv-x="1300" d="M180 0l246 1401h129l483 -1254l219 1254h103l-244 -1401h-129l-485 1247l-219 -1247h-103zM662 1559l6 83q63 48 149 48q49 0 130 -30t116 -30q75 0 137 45l-6 -84q-62 -47 -152 -47q-42 0 -124 30t-119 30q-80 0 -137 -45z" />
<glyph unicode="&#xd2;" horiz-adv-x="1290" d="M233 348q0 122 44 368.5t104 385.5q67 164 186 242.5t328 78.5q221 0 313 -89.5t92 -280.5q0 -132 -43.5 -375.5t-105.5 -384.5q-67 -161 -186 -238.5t-324 -77.5q-223 0 -315.5 90t-92.5 281zM338 352q0 -146 69.5 -212t241.5 -66q166 0 260.5 62t147.5 194 q55 129 97 364t42 355q0 145 -70.5 211.5t-240.5 66.5q-166 0 -260 -61t-148 -193q-54 -127 -96.5 -367t-42.5 -354zM707 1661l18 96l336 -184l-33 -76z" />
<glyph unicode="&#xd3;" horiz-adv-x="1290" d="M233 348q0 122 44 368.5t104 385.5q67 164 186 242.5t328 78.5q221 0 313 -89.5t92 -280.5q0 -132 -43.5 -375.5t-105.5 -384.5q-67 -161 -186 -238.5t-324 -77.5q-223 0 -315.5 90t-92.5 281zM338 352q0 -146 69.5 -212t241.5 -66q166 0 260.5 62t147.5 194 q55 129 97 364t42 355q0 145 -70.5 211.5t-240.5 66.5q-166 0 -260 -61t-148 -193q-54 -127 -96.5 -367t-42.5 -354zM774 1581l397 176l-12 -104l-381 -156z" />
<glyph unicode="&#xd4;" horiz-adv-x="1290" d="M233 348q0 122 44 368.5t104 385.5q67 164 186 242.5t328 78.5q221 0 313 -89.5t92 -280.5q0 -132 -43.5 -375.5t-105.5 -384.5q-67 -161 -186 -238.5t-324 -77.5q-223 0 -315.5 90t-92.5 281zM338 352q0 -146 69.5 -212t241.5 -66q166 0 260.5 62t147.5 194 q55 129 97 364t42 355q0 145 -70.5 211.5t-240.5 66.5q-166 0 -260 -61t-148 -193q-54 -127 -96.5 -367t-42.5 -354zM612 1573l334 176l277 -174l-47 -74l-242 148l-297 -150z" />
<glyph unicode="&#xd5;" horiz-adv-x="1290" d="M233 348q0 122 44 368.5t104 385.5q67 164 186 242.5t328 78.5q221 0 313 -89.5t92 -280.5q0 -132 -43.5 -375.5t-105.5 -384.5q-67 -161 -186 -238.5t-324 -77.5q-223 0 -315.5 90t-92.5 281zM338 352q0 -146 69.5 -212t241.5 -66q166 0 260.5 62t147.5 194 q55 129 97 364t42 355q0 145 -70.5 211.5t-240.5 66.5q-166 0 -260 -61t-148 -193q-54 -127 -96.5 -367t-42.5 -354zM657 1559l7 83q63 48 149 48q49 0 130 -30t116 -30q75 0 137 45l-6 -84q-62 -47 -152 -47q-42 0 -124 30t-119 30q-81 0 -138 -45z" />
<glyph unicode="&#xd6;" horiz-adv-x="1290" d="M233 348q0 122 44 368.5t104 385.5q67 164 186 242.5t328 78.5q221 0 313 -89.5t92 -280.5q0 -132 -43.5 -375.5t-105.5 -384.5q-67 -161 -186 -238.5t-324 -77.5q-223 0 -315.5 90t-92.5 281zM338 352q0 -146 69.5 -212t241.5 -66q166 0 260.5 62t147.5 194 q55 129 97 364t42 355q0 145 -70.5 211.5t-240.5 66.5q-166 0 -260 -61t-148 -193q-54 -127 -96.5 -367t-42.5 -354zM696 1593q0 32 15 90q6 23 19.5 32t43.5 9t40.5 -7t10.5 -27q0 -29 -16 -95q-6 -20 -18.5 -27t-42.5 -7t-41 6.5t-11 25.5zM1028 1593q0 36 14 90 q6 23 19.5 32t44.5 9q30 0 40.5 -7t10.5 -27q0 -29 -16 -95q-6 -20 -19 -27t-43 -7q-29 0 -40 6.5t-11 25.5z" />
<glyph unicode="&#xd7;" horiz-adv-x="1024" d="M233 313l318 271l-219 268l65 55l221 -268l316 270l55 -67l-315 -271l219 -266l-66 -55l-219 266l-317 -270z" />
<glyph unicode="&#xd8;" horiz-adv-x="1290" d="M193 -78l112 166q-72 86 -72 260q0 122 44 368.5t104 385.5q67 164 186 242.5t328 78.5q184 0 276 -65l93 133l69 -39l-98 -149q65 -85 65 -250q0 -132 -43.5 -375.5t-105.5 -384.5q-67 -161 -186 -238.5t-324 -77.5q-180 0 -274 58l-103 -152zM338 352q0 -109 35 -166 l739 1086q-70 55 -227 55q-166 0 -260 -61t-148 -193q-54 -127 -96.5 -367t-42.5 -354zM428 123q73 -49 221 -49q166 0 260.5 62t147.5 194q55 129 97 364t42 355q0 91 -31 155z" />
<glyph unicode="&#xd9;" horiz-adv-x="1282" d="M233 326q0 56 13 129l168 946h104l-172 -959q-10 -62 -10 -108q0 -262 309 -262q193 0 302 93.5t143 289.5l165 946h105l-168 -946q-18 -101 -55.5 -183t-102 -150.5t-166 -106.5t-233.5 -38q-402 0 -402 349zM705 1661l18 96l336 -184l-33 -76z" />
<glyph unicode="&#xda;" horiz-adv-x="1282" d="M233 326q0 56 13 129l168 946h104l-172 -959q-10 -62 -10 -108q0 -262 309 -262q193 0 302 93.5t143 289.5l165 946h105l-168 -946q-18 -101 -55.5 -183t-102 -150.5t-166 -106.5t-233.5 -38q-402 0 -402 349zM770 1581l397 176l-12 -104l-381 -156z" />
<glyph unicode="&#xdb;" horiz-adv-x="1282" d="M233 326q0 56 13 129l168 946h104l-172 -959q-10 -62 -10 -108q0 -262 309 -262q193 0 302 93.5t143 289.5l165 946h105l-168 -946q-18 -101 -55.5 -183t-102 -150.5t-166 -106.5t-233.5 -38q-402 0 -402 349zM608 1573l334 176l277 -174l-48 -74l-241 148l-297 -150z " />
<glyph unicode="&#xdc;" horiz-adv-x="1282" d="M233 326q0 56 13 129l168 946h104l-172 -959q-10 -62 -10 -108q0 -262 309 -262q193 0 302 93.5t143 289.5l165 946h105l-168 -946q-18 -101 -55.5 -183t-102 -150.5t-166 -106.5t-233.5 -38q-402 0 -402 349zM694 1593q0 32 15 90q6 23 19.5 32t43.5 9t40.5 -7t10.5 -27 q0 -29 -16 -95q-6 -20 -19 -27t-43 -7q-29 0 -40 6.5t-11 25.5zM1026 1593q0 36 14 90q6 23 19.5 32t44.5 9q30 0 40.5 -7t10.5 -27q0 -29 -16 -95q-6 -20 -19 -27t-43 -7q-29 0 -40 6.5t-11 25.5z" />
<glyph unicode="&#xdd;" horiz-adv-x="1097" d="M272 1401h111l268 -793l549 793h117l-631 -907l-84 -494h-104l86 492zM680 1581l397 176l-12 -104l-381 -156z" />
<glyph unicode="&#xde;" horiz-adv-x="1118" d="M178 0l244 1401h104l-43 -256h357q174 0 243.5 -57t69.5 -187q0 -84 -23 -215.5t-67 -216.5q-45 -91 -130.5 -133.5t-236.5 -42.5h-362l-51 -293h-105zM350 387h355q115 0 177 32.5t95 104.5q32 67 51 174t19 185q0 94 -51 130t-175 36h-356z" />
<glyph unicode="&#xdf;" horiz-adv-x="1175" d="M170 0l190 1092q65 362 402 362q141 0 215 -66.5t74 -181.5q0 -91 -38 -164.5t-112 -152.5q-9 -9 -34.5 -34t-38.5 -39.5t-30.5 -36.5t-25.5 -42.5t-8 -40.5q0 -43 35.5 -70t140.5 -79q89 -44 126.5 -87.5t37.5 -135.5q0 -181 -88 -264t-283 -83q-108 0 -231 37l35 95 q97 -39 206 -39q137 0 197.5 54.5t60.5 180.5q0 42 -15 70.5t-38 45.5t-69 40q-117 58 -150 84q-65 50 -65 129q0 31 8 59t28 56.5t33 45t45.5 50.5t44.5 47q67 71 98 134t31 134q0 78 -50.5 121t-147.5 43q-130 0 -199 -72t-92 -209l-191 -1083h-102z" />
<glyph unicode="&#xe0;" horiz-adv-x="1038" d="M184 227q0 92 21.5 224t54.5 245q33 115 82 181t137.5 100.5t229.5 34.5q173 0 333 -31l-172 -981h-90l11 94q-75 -49 -169.5 -83t-183.5 -34q-137 0 -195.5 59.5t-58.5 190.5zM289 242q0 -93 38 -133.5t132 -40.5q143 0 342 125l125 710q-136 21 -232 21 q-119 0 -188.5 -35t-106.5 -105q-40 -76 -75 -252t-35 -290zM489 1278l19 96l336 -184l-33 -76z" />
<glyph unicode="&#xe1;" horiz-adv-x="1038" d="M184 227q0 92 21.5 224t54.5 245q33 115 82 181t137.5 100.5t229.5 34.5q173 0 333 -31l-172 -981h-90l11 94q-75 -49 -169.5 -83t-183.5 -34q-137 0 -195.5 59.5t-58.5 190.5zM289 242q0 -93 38 -133.5t132 -40.5q143 0 342 125l125 710q-136 21 -232 21 q-119 0 -188.5 -35t-106.5 -105q-40 -76 -75 -252t-35 -290zM555 1198l397 176l-12 -104l-381 -156z" />
<glyph unicode="&#xe2;" horiz-adv-x="1038" d="M184 227q0 92 21.5 224t54.5 245q33 115 82 181t137.5 100.5t229.5 34.5q173 0 333 -31l-172 -981h-90l11 94q-75 -49 -169.5 -83t-183.5 -34q-137 0 -195.5 59.5t-58.5 190.5zM289 242q0 -93 38 -133.5t132 -40.5q143 0 342 125l125 710q-136 21 -232 21 q-119 0 -188.5 -35t-106.5 -105q-40 -76 -75 -252t-35 -290zM393 1190l334 176l277 -174l-48 -74l-241 148l-297 -150z" />
<glyph unicode="&#xe3;" horiz-adv-x="1038" d="M184 227q0 92 21.5 224t54.5 245q33 115 82 181t137.5 100.5t229.5 34.5q173 0 333 -31l-172 -981h-90l11 94q-75 -49 -169.5 -83t-183.5 -34q-137 0 -195.5 59.5t-58.5 190.5zM289 242q0 -93 38 -133.5t132 -40.5q143 0 342 125l125 710q-136 21 -232 21 q-119 0 -188.5 -35t-106.5 -105q-40 -76 -75 -252t-35 -290zM438 1176l6 84q61 47 150 47q50 0 131 -30t115 -30q75 0 137 45l-6 -84q-62 -47 -152 -47q-42 0 -124.5 30t-119.5 30q-80 0 -137 -45z" />
<glyph unicode="&#xe4;" horiz-adv-x="1038" d="M184 227q0 92 21.5 224t54.5 245q33 115 82 181t137.5 100.5t229.5 34.5q173 0 333 -31l-172 -981h-90l11 94q-75 -49 -169.5 -83t-183.5 -34q-137 0 -195.5 59.5t-58.5 190.5zM289 242q0 -93 38 -133.5t132 -40.5q143 0 342 125l125 710q-136 21 -232 21 q-119 0 -188.5 -35t-106.5 -105q-40 -76 -75 -252t-35 -290zM479 1210q0 32 15 90q6 23 19.5 32t43.5 9t40.5 -7t10.5 -27q0 -29 -16 -95q-6 -20 -19 -27t-43 -7q-29 0 -40 6.5t-11 25.5zM811 1210q0 36 14 90q6 23 19.5 32t44.5 9q30 0 40.5 -7t10.5 -27q0 -29 -16 -95 q-6 -20 -19 -27t-43 -7q-29 0 -40 6.5t-11 25.5z" />
<glyph unicode="&#xe5;" horiz-adv-x="1038" d="M184 227q0 92 21.5 224t54.5 245q33 115 82 181t137.5 100.5t229.5 34.5q173 0 333 -31l-172 -981h-90l11 94q-75 -49 -169.5 -83t-183.5 -34q-137 0 -195.5 59.5t-58.5 190.5zM289 242q0 -93 38 -133.5t132 -40.5q143 0 342 125l125 710q-136 21 -232 21 q-119 0 -188.5 -35t-106.5 -105q-40 -76 -75 -252t-35 -290zM565 1237q0 69 46.5 115.5t119.5 46.5q56 0 90.5 -32t34.5 -87q0 -70 -46 -117t-112 -47q-64 0 -98.5 32.5t-34.5 88.5zM633 1241q0 -27 18 -43t51 -16q38 0 64.5 26t26.5 66q0 28 -17.5 43.5t-48.5 15.5 q-40 0 -67 -25.5t-27 -66.5z" />
<glyph unicode="&#xe6;" horiz-adv-x="1576" d="M152 178q0 82 28 162.5t86 132.5q54 48 138.5 67t209.5 19q113 0 211 -14l35 198q2 16 2 41q0 63 -49.5 100.5t-157.5 37.5q-129 0 -313 -52l6 95q77 21 170 34t156 13q237 0 272 -150q119 150 348 150q163 0 233 -64t70 -200q0 -81 -21.5 -141.5t-56.5 -97.5t-88 -59 t-107.5 -30t-123.5 -8q-112 0 -295 34q-20 -147 -20 -192q0 -99 54 -142.5t187 -43.5q179 0 340 51l-12 -96q-75 -21 -175.5 -33.5t-168.5 -12.5q-136 0 -206.5 35.5t-100.5 112.5q-84 -68 -194.5 -108t-211.5 -40q-51 0 -91.5 8.5t-77 29.5t-56.5 62t-20 101zM254 193 q0 -125 162 -125q92 0 189.5 37.5t180.5 99.5v26q0 104 23 228q-85 12 -168 12q-119 0 -192 -13t-115 -52q-39 -36 -59.5 -93t-20.5 -120zM922 537q167 -35 278 -35q150 0 223.5 56.5t73.5 184.5q0 94 -50 136.5t-167 42.5t-189 -45.5t-114 -143.5q-31 -72 -55 -196z" />
<glyph unicode="&#xe7;" horiz-adv-x="872" d="M180 256q0 99 31 256.5t72 247.5q36 86 86.5 140t130 83t192.5 29q135 0 252 -19l-24 -96q-115 23 -236 23q-123 0 -193.5 -42.5t-111.5 -144.5q-36 -81 -66 -229t-30 -242q0 -102 54 -146t189 -44q91 0 244 26l-6 -96q-143 -25 -248 -25h-12l-37 -86h31q72 0 108.5 -24 t36.5 -64q0 -10 -2 -20l-14 -78q-10 -58 -55 -85.5t-150 -27.5q-84 0 -143 13l24 67q62 -10 121 -10q109 0 115 39l16 92q3 18 -21.5 25.5t-78.5 7.5q-19 0 -35 -4l-39 18l55 142q-141 13 -198.5 80t-57.5 194z" />
<glyph unicode="&#xe8;" horiz-adv-x="942" d="M176 248q0 115 28 267t68 245q52 124 149.5 189t258.5 65q90 0 151 -18t95 -54t48.5 -82t14.5 -110q0 -176 -97.5 -257t-299.5 -81q-65 0 -122 4.5t-81.5 8.5t-93.5 15q-19 -133 -19 -186q0 -101 54 -143.5t188 -42.5q180 0 338 51l-12 -94q-74 -23 -172 -35.5 t-172 -12.5q-183 0 -253.5 64.5t-70.5 206.5zM311 530q147 -26 281 -26q150 0 223.5 56t73.5 183q0 94 -50 136.5t-167 42.5q-118 0 -190.5 -45.5t-112.5 -143.5q-33 -72 -58 -203zM489 1278l19 96l336 -184l-33 -76z" />
<glyph unicode="&#xe9;" horiz-adv-x="942" d="M176 248q0 115 28 267t68 245q52 124 149.5 189t258.5 65q90 0 151 -18t95 -54t48.5 -82t14.5 -110q0 -176 -97.5 -257t-299.5 -81q-65 0 -122 4.5t-81.5 8.5t-93.5 15q-19 -133 -19 -186q0 -101 54 -143.5t188 -42.5q180 0 338 51l-12 -94q-74 -23 -172 -35.5 t-172 -12.5q-183 0 -253.5 64.5t-70.5 206.5zM311 530q147 -26 281 -26q150 0 223.5 56t73.5 183q0 94 -50 136.5t-167 42.5q-118 0 -190.5 -45.5t-112.5 -143.5q-33 -72 -58 -203zM557 1198l397 176l-12 -104l-381 -156z" />
<glyph unicode="&#xea;" horiz-adv-x="942" d="M176 248q0 115 28 267t68 245q52 124 149.5 189t258.5 65q90 0 151 -18t95 -54t48.5 -82t14.5 -110q0 -176 -97.5 -257t-299.5 -81q-65 0 -122 4.5t-81.5 8.5t-93.5 15q-19 -133 -19 -186q0 -101 54 -143.5t188 -42.5q180 0 338 51l-12 -94q-74 -23 -172 -35.5 t-172 -12.5q-183 0 -253.5 64.5t-70.5 206.5zM311 530q147 -26 281 -26q150 0 223.5 56t73.5 183q0 94 -50 136.5t-167 42.5q-118 0 -190.5 -45.5t-112.5 -143.5q-33 -72 -58 -203zM393 1190l334 176l277 -174l-48 -74l-241 148l-297 -150z" />
<glyph unicode="&#xeb;" horiz-adv-x="942" d="M176 248q0 115 28 267t68 245q52 124 149.5 189t258.5 65q90 0 151 -18t95 -54t48.5 -82t14.5 -110q0 -176 -97.5 -257t-299.5 -81q-65 0 -122 4.5t-81.5 8.5t-93.5 15q-19 -133 -19 -186q0 -101 54 -143.5t188 -42.5q180 0 338 51l-12 -94q-74 -23 -172 -35.5 t-172 -12.5q-183 0 -253.5 64.5t-70.5 206.5zM311 530q147 -26 281 -26q150 0 223.5 56t73.5 183q0 94 -50 136.5t-167 42.5q-118 0 -190.5 -45.5t-112.5 -143.5q-33 -72 -58 -203zM479 1210q0 32 15 90q6 23 19.5 32t43.5 9t40.5 -7t10.5 -27q0 -29 -16 -95q-6 -20 -19 -27 t-43 -7q-29 0 -40 6.5t-11 25.5zM811 1210q0 36 14 90q6 23 19.5 32t44.5 9q30 0 40.5 -7t10.5 -27q0 -29 -16 -95q-6 -20 -19 -27t-43 -7q-29 0 -40 6.5t-11 25.5z" />
<glyph unicode="&#xec;" d="M170 0l172 989h102l-172 -989h-102zM219 1278l19 96l335 -184l-32 -76z" />
<glyph unicode="&#xed;" d="M170 0l172 989h102l-172 -989h-102zM287 1198l397 176l-12 -104l-381 -156z" />
<glyph unicode="&#xee;" d="M123 1190l334 176l276 -174l-47 -74l-242 148l-297 -150zM170 0l172 989h102l-172 -989h-102z" />
<glyph unicode="&#xef;" d="M170 0l172 989h102l-172 -989h-102zM207 1210q0 36 14 90q6 23 19.5 32t44.5 9q30 0 40.5 -7t10.5 -27q0 -25 -17 -95q-6 -20 -18.5 -27t-42.5 -7q-29 0 -40 6.5t-11 25.5zM539 1210q0 36 14 90q6 23 19.5 32t43.5 9t41 -7t11 -27q0 -25 -17 -95q-6 -20 -18.5 -27 t-42.5 -7q-29 0 -40 6.5t-11 25.5z" />
<glyph unicode="&#xf0;" horiz-adv-x="1040" d="M184 262q0 98 33.5 268t81.5 263q52 107 146 159t251 52q169 0 242 -86q-5 201 -113 331l-198 -129l-35 66l182 117q-64 62 -166 131l107 34q103 -72 145 -112l172 112l35 -65l-156 -98q131 -153 131 -426q0 -122 -30.5 -326.5t-79.5 -319.5q-52 -130 -148.5 -193 t-267.5 -63q-182 0 -257 69.5t-75 215.5zM289 268q0 -103 53 -150.5t184 -47.5t202.5 46t111.5 154q34 80 59 215.5t25 225.5q0 105 -53.5 152.5t-184.5 47.5q-123 0 -192 -39.5t-111 -128.5q-37 -80 -65.5 -236t-28.5 -239z" />
<glyph unicode="&#xf1;" horiz-adv-x="1042" d="M166 0l174 989h96l-12 -102q248 125 405 125q195 0 195 -160q0 -28 -6 -68l-137 -784h-103l133 780q7 31 7 51q0 87 -111 87q-76 0 -186 -36.5t-213 -90.5l-138 -791h-104zM467 1176l6 84q61 47 150 47q49 0 130 -30t115 -30q76 0 138 45l-7 -84q-62 -47 -151 -47 q-42 0 -124.5 30t-119.5 30q-80 0 -137 -45z" />
<glyph unicode="&#xf2;" horiz-adv-x="1044" d="M186 264q0 101 29.5 256.5t71.5 247.5q53 123 148.5 183.5t260.5 60.5q182 0 256 -70.5t74 -218.5q0 -107 -26.5 -253t-69.5 -241q-55 -127 -151 -189.5t-263 -62.5q-182 0 -256 70t-74 217zM289 268q0 -105 52.5 -151.5t184.5 -46.5q129 0 201 46.5t111 149.5 q37 86 61.5 221t24.5 232q0 106 -53 153.5t-183 47.5q-127 0 -197 -42t-110 -137q-37 -86 -64.5 -233t-27.5 -240zM520 1278l19 96l335 -184l-32 -76z" />
<glyph unicode="&#xf3;" horiz-adv-x="1044" d="M186 264q0 101 29.5 256.5t71.5 247.5q53 123 148.5 183.5t260.5 60.5q182 0 256 -70.5t74 -218.5q0 -107 -26.5 -253t-69.5 -241q-55 -127 -151 -189.5t-263 -62.5q-182 0 -256 70t-74 217zM289 268q0 -105 52.5 -151.5t184.5 -46.5q129 0 201 46.5t111 149.5 q37 86 61.5 221t24.5 232q0 106 -53 153.5t-183 47.5q-127 0 -197 -42t-110 -137q-37 -86 -64.5 -233t-27.5 -240zM586 1198l397 176l-12 -104l-381 -156z" />
<glyph unicode="&#xf4;" horiz-adv-x="1044" d="M186 264q0 101 29.5 256.5t71.5 247.5q53 123 148.5 183.5t260.5 60.5q182 0 256 -70.5t74 -218.5q0 -107 -26.5 -253t-69.5 -241q-55 -127 -151 -189.5t-263 -62.5q-182 0 -256 70t-74 217zM289 268q0 -105 52.5 -151.5t184.5 -46.5q129 0 201 46.5t111 149.5 q37 86 61.5 221t24.5 232q0 106 -53 153.5t-183 47.5q-127 0 -197 -42t-110 -137q-37 -86 -64.5 -233t-27.5 -240zM424 1190l334 176l276 -174l-47 -74l-242 148l-296 -150z" />
<glyph unicode="&#xf5;" horiz-adv-x="1044" d="M186 264q0 101 29.5 256.5t71.5 247.5q53 123 148.5 183.5t260.5 60.5q182 0 256 -70.5t74 -218.5q0 -107 -26.5 -253t-69.5 -241q-55 -127 -151 -189.5t-263 -62.5q-182 0 -256 70t-74 217zM289 268q0 -105 52.5 -151.5t184.5 -46.5q129 0 201 46.5t111 149.5 q37 86 61.5 221t24.5 232q0 106 -53 153.5t-183 47.5q-127 0 -197 -42t-110 -137q-37 -86 -64.5 -233t-27.5 -240zM469 1176l6 84q61 47 150 47q49 0 130 -30t115 -30q76 0 138 45l-7 -84q-62 -47 -151 -47q-42 0 -124.5 30t-119.5 30q-80 0 -137 -45z" />
<glyph unicode="&#xf6;" horiz-adv-x="1044" d="M186 264q0 101 29.5 256.5t71.5 247.5q53 123 148.5 183.5t260.5 60.5q182 0 256 -70.5t74 -218.5q0 -107 -26.5 -253t-69.5 -241q-55 -127 -151 -189.5t-263 -62.5q-182 0 -256 70t-74 217zM289 268q0 -105 52.5 -151.5t184.5 -46.5q129 0 201 46.5t111 149.5 q37 86 61.5 221t24.5 232q0 106 -53 153.5t-183 47.5q-127 0 -197 -42t-110 -137q-37 -86 -64.5 -233t-27.5 -240zM508 1210q0 36 14 90q6 23 19.5 32t44.5 9q30 0 40.5 -7t10.5 -27q0 -29 -16 -95q-6 -20 -19 -27t-43 -7q-29 0 -40 6.5t-11 25.5zM840 1210q0 36 14 90 q6 23 19.5 32t44.5 9q30 0 40.5 -7t10.5 -27q0 -25 -17 -95q-6 -20 -18.5 -27t-42.5 -7q-29 0 -40 6.5t-11 25.5z" />
<glyph unicode="&#xf7;" horiz-adv-x="1024" d="M219 532l17 89h768l-17 -89h-768zM489 219q0 34 15 92q6 25 19 34t44 9q29 0 40 -6.5t11 -25.5q0 -53 -16 -99q-7 -22 -20.5 -29.5t-42.5 -7.5q-28 0 -39 7t-11 26zM598 834q0 38 14 92q6 25 19.5 34t44.5 9q29 0 40 -7t11 -26q0 -52 -16 -98q-7 -22 -21 -29.5t-43 -7.5 q-28 0 -38.5 7t-10.5 26z" />
<glyph unicode="&#xf8;" horiz-adv-x="1044" d="M145 -84l101 143q-60 68 -60 205q0 101 29.5 256.5t71.5 247.5q53 123 148.5 183.5t260.5 60.5q128 0 201 -37l107 151l67 -41l-108 -155q63 -66 63 -207q0 -107 -26.5 -253t-69.5 -241q-55 -127 -151 -189.5t-263 -62.5q-132 0 -207 35l-96 -135zM289 268q0 -75 24 -114 l525 739q-59 27 -150 27q-127 0 -197 -42t-110 -137q-37 -86 -64.5 -233t-27.5 -240zM371 96q51 -26 155 -26q129 0 201 46.5t111 149.5q37 86 61.5 221t24.5 232q0 75 -29 117z" />
<glyph unicode="&#xf9;" horiz-adv-x="1042" d="M188 139q0 21 7 68l135 782h102l-133 -778q-6 -27 -6 -51q0 -86 110 -86q77 0 188 36t212 89l139 790h102l-172 -989h-96l10 104q-241 -124 -405 -124q-193 0 -193 159zM518 1278l19 96l335 -184l-32 -76z" />
<glyph unicode="&#xfa;" horiz-adv-x="1042" d="M188 139q0 21 7 68l135 782h102l-133 -778q-6 -27 -6 -51q0 -86 110 -86q77 0 188 36t212 89l139 790h102l-172 -989h-96l10 104q-241 -124 -405 -124q-193 0 -193 159zM586 1198l397 176l-12 -104l-381 -156z" />
<glyph unicode="&#xfb;" horiz-adv-x="1042" d="M188 139q0 21 7 68l135 782h102l-133 -778q-6 -27 -6 -51q0 -86 110 -86q77 0 188 36t212 89l139 790h102l-172 -989h-96l10 104q-241 -124 -405 -124q-193 0 -193 159zM424 1190l334 176l276 -174l-47 -74l-242 148l-296 -150z" />
<glyph unicode="&#xfc;" horiz-adv-x="1042" d="M188 139q0 21 7 68l135 782h102l-133 -778q-6 -27 -6 -51q0 -86 110 -86q77 0 188 36t212 89l139 790h102l-172 -989h-96l10 104q-241 -124 -405 -124q-193 0 -193 159zM508 1210q0 36 14 90q6 23 19.5 32t44.5 9q30 0 40.5 -7t10.5 -27q0 -29 -16 -95q-6 -20 -19 -27 t-43 -7q-29 0 -40 6.5t-11 25.5zM840 1210q0 36 14 90q6 23 19.5 32t44.5 9q30 0 40.5 -7t10.5 -27q0 -25 -17 -95q-6 -20 -18.5 -27t-42.5 -7q-29 0 -40 6.5t-11 25.5z" />
<glyph unicode="&#xfd;" horiz-adv-x="876" d="M154 -412l227 412l-182 989h108l152 -846l448 846h111l-758 -1401h-106zM502 1198l397 176l-12 -104l-381 -156z" />
<glyph unicode="&#xfe;" horiz-adv-x="1052" d="M90 -416l326 1841l108 27l-102 -575q80 60 177 97.5t179 37.5q141 0 197.5 -61t56.5 -189q0 -86 -19.5 -211.5t-51.5 -239.5q-22 -78 -51.5 -135t-76 -103t-114 -69.5t-156.5 -23.5q-125 0 -295 34l-69 -405zM287 106q155 -38 282 -38q70 0 121 21t84.5 62.5t53.5 85.5 t38 109q28 95 45 210.5t17 193.5q0 89 -38 130.5t-130 41.5q-86 0 -183 -45.5t-174 -106.5z" />
<glyph unicode="&#xff;" horiz-adv-x="876" d="M154 -412l227 412l-182 989h108l152 -846l448 846h111l-758 -1401h-106zM426 1210q0 36 14 90q6 23 19.5 32t44.5 9q30 0 40.5 -7t10.5 -27q0 -29 -16 -95q-6 -20 -19 -27t-43 -7q-29 0 -40 6.5t-11 25.5zM758 1210q0 36 14 90q6 23 19.5 32t44.5 9q30 0 40.5 -7 t10.5 -27q0 -25 -17 -95q-6 -20 -18.5 -27t-42.5 -7q-29 0 -40 6.5t-11 25.5z" />
<glyph unicode="&#x152;" horiz-adv-x="1796" d="M238 393q4 124 45 352t96 351q69 156 191.5 236.5t336.5 80.5q70 0 226 -12h776l-17 -96h-657l-94 -535h590l-17 -94h-590l-102 -580h659l-14 -96h-778q-132 -12 -234 -12q-121 0 -204 27.5t-129.5 82t-66 126t-17.5 169.5zM342 399q0 -155 74 -235t258 -80q128 0 246 16 l213 1203q-125 16 -242 16q-173 0 -268.5 -65t-151.5 -197q-48 -112 -88.5 -328t-40.5 -330z" />
<glyph unicode="&#x153;" horiz-adv-x="1660" d="M186 264q0 101 29.5 256.5t71.5 247.5q53 124 148.5 184t260.5 60q142 0 215.5 -46.5t96.5 -138.5q58 93 147 139t221 46q89 0 150 -17.5t95 -53.5t48 -82t14 -111q0 -175 -97.5 -255.5t-299.5 -80.5q-127 0 -295 28q-20 -129 -20 -186q0 -101 53.5 -143.5t187.5 -42.5 q182 0 340 51l-12 -94q-74 -23 -172 -35.5t-172 -12.5q-149 0 -219.5 44.5t-89.5 138.5q-60 -93 -147.5 -138t-223.5 -45q-182 0 -256 70t-74 217zM289 268q0 -105 52.5 -151.5t184.5 -46.5q138 0 208.5 55.5t111.5 187.5q34 79 56 201.5t22 204.5q0 106 -53 153.5 t-183 47.5q-127 0 -197 -42t-110 -137q-37 -86 -64.5 -233t-27.5 -240zM1006 530q147 -26 280 -26q150 0 223.5 56t73.5 183q0 94 -50 136.5t-167 42.5q-119 0 -192 -45t-111 -144q-9 -18 -16 -36.5t-13 -42t-9.5 -37.5t-10 -45t-8.5 -42z" />
<glyph unicode="&#x178;" horiz-adv-x="1097" d="M272 1401h111l268 -793l549 793h117l-631 -907l-84 -494h-104l86 492zM602 1593q0 36 14 90q6 23 19.5 32t44.5 9q30 0 40.5 -7t10.5 -27q0 -29 -16 -95q-6 -20 -19 -27t-43 -7q-29 0 -40 6.5t-11 25.5zM934 1593q0 36 14 90q6 23 19.5 32t44.5 9q30 0 40.5 -7t10.5 -27 q0 -29 -16 -95q-6 -20 -19 -27t-43 -7q-29 0 -40 6.5t-11 25.5z" />
<glyph unicode="&#x2c6;" horiz-adv-x="681" d="M244 1190l334 176l276 -174l-47 -74l-242 148l-297 -150z" />
<glyph unicode="&#x2dc;" horiz-adv-x="681" d="M291 1176l6 84q61 47 149 47q50 0 131 -30t115 -30q75 0 137 45l-6 -84q-62 -47 -151 -47q-42 0 -124.5 30t-119.5 30q-80 0 -137 -45z" />
<glyph unicode="&#x2000;" horiz-adv-x="891" />
<glyph unicode="&#x2001;" horiz-adv-x="1782" />
<glyph unicode="&#x2002;" horiz-adv-x="891" />
<glyph unicode="&#x2003;" horiz-adv-x="1782" />
<glyph unicode="&#x2004;" horiz-adv-x="594" />
<glyph unicode="&#x2005;" horiz-adv-x="445" />
<glyph unicode="&#x2006;" horiz-adv-x="297" />
<glyph unicode="&#x2007;" horiz-adv-x="297" />
<glyph unicode="&#x2008;" horiz-adv-x="222" />
<glyph unicode="&#x2009;" horiz-adv-x="356" />
<glyph unicode="&#x200a;" horiz-adv-x="99" />
<glyph unicode="&#x2010;" horiz-adv-x="741" d="M217 504l16 92h482l-17 -92h-481z" />
<glyph unicode="&#x2011;" horiz-adv-x="741" d="M217 504l16 92h482l-17 -92h-481z" />
<glyph unicode="&#x2012;" horiz-adv-x="741" d="M217 504l16 92h482l-17 -92h-481z" />
<glyph unicode="&#x2013;" horiz-adv-x="1024" d="M78 506l16 90h1043l-17 -90h-1042z" />
<glyph unicode="&#x2014;" horiz-adv-x="1705" d="M78 506l16 90h1721l-15 -90h-1722z" />
<glyph unicode="&#x2018;" d="M346 1077q0 19 4 43l8 41q8 41 31 84l105 203q5 8 9.5 8.5t19.5 -5.5q4 -2 7 -3q20 -9 23 -12.5t-2 -10.5l-86 -186q-6 -15 -6 -20q0 -7 8 -15t8 -22q0 -43 -14 -97q-6 -24 -20 -33.5t-44 -9.5q-29 0 -40 7.5t-11 27.5z" />
<glyph unicode="&#x2019;" d="M311 1040.5q-3 3.5 2 10.5l86 186q7 17 7 20q0 6 -9 15q-8 8 -8 22q0 43 14 97q6 24 20 33.5t44 9.5q29 0 40 -7.5t11 -27.5q0 -19 -4 -43l-8 -41q-8 -41 -31 -84l-104 -203q-7 -8 -11 -8t-26 8q-20 9 -23 12.5z" />
<glyph unicode="&#x201a;" d="M88 -237.5q-3 3.5 2 10.5l86 186q6 15 6 21t-8 14t-8 22q0 43 14 97q6 24 20 33.5t44 9.5q29 0 40 -7.5t11 -27.5q0 -19 -4 -43l-8 -41q-8 -41 -31 -84l-105 -203q-5 -8 -9.5 -8.5t-19.5 5.5q-4 2 -7 3q-20 9 -23 12.5z" />
<glyph unicode="&#x201c;" horiz-adv-x="739" d="M346 1077q0 19 4 43l8 41q8 41 31 84l105 203q5 8 9.5 8.5t19.5 -5.5q4 -2 7 -3q20 -9 23 -12.5t-2 -10.5l-86 -186q-6 -15 -6 -20q0 -7 8 -15t8 -22q0 -43 -14 -97q-6 -24 -20 -33.5t-44 -9.5q-29 0 -40 7.5t-11 27.5zM647 1077q0 19 4 43l8 41q8 41 31 84l105 203 q5 8 9.5 8.5t19.5 -5.5q4 -2 7 -3q20 -9 23 -12.5t-2 -10.5l-86 -186q-6 -15 -6 -20q0 -7 8 -15t8 -22q0 -43 -14 -97q-6 -24 -20 -33.5t-44 -9.5q-29 0 -40 7.5t-11 27.5z" />
<glyph unicode="&#x201d;" horiz-adv-x="739" d="M311 1040.5q-3 3.5 2 10.5l86 186q7 17 7 20q0 6 -9 15q-8 8 -8 22q0 43 14 97q6 24 20 33.5t44 9.5q29 0 40 -7.5t11 -27.5q0 -19 -4 -43l-8 -41q-8 -41 -31 -84l-104 -203q-7 -8 -11 -8t-26 8q-20 9 -23 12.5zM612 1040.5q-3 3.5 2 10.5l86 186q7 17 7 20q0 6 -9 15 q-8 8 -8 22q0 40 15 97q6 24 19.5 33.5t43.5 9.5q29 0 40 -7.5t11 -27.5q0 -19 -4 -43l-8 -41q-8 -41 -31 -84l-104 -203q-7 -8 -11 -8t-26 8q-20 9 -23 12.5z" />
<glyph unicode="&#x201e;" horiz-adv-x="739" d="M88 -237.5q-3 3.5 2 10.5l86 186q6 15 6 21t-8 14t-8 22q0 43 14 97q6 24 20 33.5t44 9.5q29 0 40 -7.5t11 -27.5q0 -19 -4 -43l-8 -41q-8 -41 -31 -84l-105 -203q-5 -8 -9.5 -8.5t-19.5 5.5q-4 2 -7 3q-20 9 -23 12.5zM389 -237.5q-3 3.5 2 10.5l86 186q6 15 6 21t-8 14 t-8 22q0 43 14 97q6 24 20 33.5t44 9.5q29 0 40 -7.5t11 -27.5q0 -19 -4 -43l-8 -41q-8 -41 -31 -84l-104 -203q-7 -8 -11 -8t-26 8q-20 9 -23 12.5z" />
<glyph unicode="&#x2022;" horiz-adv-x="1024" d="M332 709q0 126 87.5 215.5t213.5 89.5t214.5 -88.5t88.5 -214.5t-88.5 -213.5t-214.5 -87.5t-213.5 86.5t-87.5 212.5z" />
<glyph unicode="&#x2026;" horiz-adv-x="1705" d="M229 20q0 35 15 93q6 25 19.5 34t45.5 9q28 0 38.5 -7t10.5 -26q0 -52 -16 -98q-7 -22 -20.5 -29.5t-42.5 -7.5q-28 0 -39 7t-11 25zM797 20q0 39 14 93q6 25 20 34t46 9q28 0 38.5 -7t10.5 -26q0 -49 -17 -98q-7 -22 -20.5 -29.5t-42.5 -7.5q-28 0 -38.5 6.5t-10.5 25.5 zM1366 20q0 39 14 93q6 25 20 34t46 9q28 0 38.5 -7t10.5 -26q0 -52 -16 -98q-7 -22 -21 -29.5t-43 -7.5q-28 0 -38.5 6.5t-10.5 25.5z" />
<glyph unicode="&#x202f;" horiz-adv-x="356" />
<glyph unicode="&#x2039;" horiz-adv-x="536" d="M154 453l16 92l385 366l59 -71l-370 -351l237 -342l-71 -61z" />
<glyph unicode="&#x203a;" horiz-adv-x="536" d="M92 158l373 352l-238 340l72 61l256 -366l-14 -92l-389 -367z" />
<glyph unicode="&#x205f;" horiz-adv-x="445" />
<glyph unicode="&#x20ac;" horiz-adv-x="1142" d="M172 489l31 91h159q21 108 39 213h-174l27 90h166q39 189 101.5 299.5t169 165.5t272.5 55q168 0 305 -37l-25 -96q-129 39 -270 39q-110 0 -184 -22t-126 -75.5t-83.5 -129.5t-59.5 -199h524l-28 -90h-512q-9 -45 -37 -213h487l-30 -91h-473q-15 -111 -15 -172 q0 -130 71 -188.5t241 -58.5q161 0 305 36l-9 -96q-174 -33 -307 -33q-225 0 -314 79t-89 253q0 85 14 180h-176z" />
<glyph unicode="&#x2122;" horiz-adv-x="1210" d="M326 1333l10 68h403l-12 -68h-164l-84 -465h-71l81 465h-163zM770 868l94 533h74l94 -371l223 371h76l-94 -533h-72l66 365l-172 -281h-80l-72 283l-65 -367h-72z" />
<glyph unicode="&#x25fc;" horiz-adv-x="993" d="M0 0v993h993v-993h-993z" />
<glyph unicode="&#xfb01;" horiz-adv-x="1144" d="M160 -418l227 1297h-164l17 90h163l41 231q24 131 102.5 193.5t227.5 62.5q83 0 160 -18l-19 -88q-102 18 -153 18q-99 0 -149.5 -41.5t-65.5 -134.5l-41 -223h289l-39 -90h-267l-221 -1270zM874 0l173 989h102l-172 -989h-103zM1085 1227q0 26 17 92q6 25 18.5 34 t44.5 9q29 0 40.5 -7t11.5 -26q0 -52 -19 -98q-6 -22 -19 -29.5t-42 -7.5t-40.5 7t-11.5 26z" />
<glyph unicode="&#xfb02;" horiz-adv-x="1232" d="M160 -418l227 1297h-164l17 90h163l41 231q24 131 102.5 193.5t227.5 62.5q83 0 160 -18l-19 -88q-102 18 -153 18q-99 0 -149.5 -41.5t-65.5 -134.5l-41 -223h289l-39 -90h-267l-221 -1270zM883 90q0 47 16 119l215 1218l109 25l-226 -1262q-10 -45 -10 -79 q0 -45 64 -45q48 0 118 16l11 -84q-78 -21 -158 -21q-76 0 -107.5 28t-31.5 85z" />
</font>
</defs>
</svg>
